<svg xmlns="http://www.w3.org/2000/svg" viewBox="0 0 200.001 63.009">
  <defs>
    <style>
      .cls-1 {
        fill: none;
      }

      .cls-2 {
        fill: #fff;
      }
    </style>
  </defs>
  <g id="myfood-logo" transform="translate(-0.998 -0.006)">
    <path id="Path_1" class="cls-1" d="M7.179,0a7.157,7.157,0,1,0,7.135,7.155A7.157,7.157,0,0,0,7.179,0Z" transform="translate(127.083 26.592)"/>
    <path id="Path_2" class="cls-1" d="M4.26.554A7,7,0,0,0,.544,4.3,6.936,6.936,0,0,0,0,7.024a6.768,6.768,0,0,0,.544,2.7,7.131,7.131,0,0,0,1.5,2.224,6.974,6.974,0,0,0,9.869,0,7.312,7.312,0,0,0,1.5-2.224,6.8,6.8,0,0,0,.544-2.7V0H6.951A6.7,6.7,0,0,0,4.258.554Z" transform="translate(176.046 26.812)"/>
    <path id="Path_3" class="cls-1" d="M1.352.6A.555.555,0,0,0,1.191.147.893.893,0,0,0,.643,0H0V1.16H.672a.778.778,0,0,0,.5-.153A.5.5,0,0,0,1.352.6Z" transform="translate(197.78 6.956)"/>
    <path id="Path_4" class="cls-1" d="M7.179,0a7.157,7.157,0,1,0,7.135,7.155A7.157,7.157,0,0,0,7.179,0Z" transform="translate(151.451 26.592)"/>
    <path id="Path_5" class="cls-1" d="M2.283,4.921A2.2,2.2,0,0,1,1.13,4.6,2.323,2.323,0,0,1,.305,3.7,2.6,2.6,0,0,1,0,2.462a2.5,2.5,0,0,1,.305-1.24A2.267,2.267,0,0,1,1.13.333a2.192,2.192,0,0,1,2.322,0,2.315,2.315,0,0,1,.825.894,2.539,2.539,0,0,1,.288,1.228A2.6,2.6,0,0,1,4.261,3.7a2.258,2.258,0,0,1-.825.9A2.2,2.2,0,0,1,2.283,4.921ZM1.321.852v3.1H1.68V2.674h.693a.651.651,0,0,1,.47.137.637.637,0,0,1,.14.466,2.646,2.646,0,0,0,.049.674h.379L3.384,3.9a.737.737,0,0,1-.049-.211V3.277a1.043,1.043,0,0,0-.1-.483.631.631,0,0,0-.367-.3.764.764,0,0,0,.52-.728A.831.831,0,0,0,3.1,1.079,1.31,1.31,0,0,0,2.352.85l-.082,0Z" transform="translate(196.1 5.781)"/>
    <path id="Path_6" class="cls-2" d="M17.535,0H13.378V13.2a4.713,4.713,0,0,1-9.39-.587V.091H0V12.614a8.725,8.725,0,0,0,8.7,8.724,8.579,8.579,0,0,0,4.677-1.373V30.334a5.162,5.162,0,0,1-1.3,3.307,5.762,5.762,0,0,1-4.268,1.418H4.23v4.172H7.806a9.676,9.676,0,0,0,7.275-2.708,9.278,9.278,0,0,0,2.474-6.251Z" transform="translate(88.782 23.769)"/>
    <path id="Path_7" class="cls-2" d="M11.166,22.326A11.163,11.163,0,1,1,11.162,0h.029a11.163,11.163,0,0,1,4.237,21.479A11.108,11.108,0,0,1,11.166,22.326ZM11.169,4a7.157,7.157,0,1,0,0,14.314h.022A7.157,7.157,0,0,0,11.169,4Z" transform="translate(123.07 22.594)"/>
    <path id="Path_8" class="cls-2" d="M11.166,22.326A11.163,11.163,0,1,1,11.162,0h.029a11.163,11.163,0,0,1,4.237,21.479A11.108,11.108,0,0,1,11.166,22.326ZM11.17,4a7.157,7.157,0,1,0,0,14.314h.02A7.157,7.157,0,0,0,11.17,4Z" transform="translate(147.439 22.594)"/>
    <path id="Path_9" class="cls-2" d="M2.454,2.723A9.278,9.278,0,0,0,0,8.978V39.271H4.157V22.432h9V18.26h-9V8.933A5.167,5.167,0,0,1,5.464,5.625,5.762,5.762,0,0,1,9.728,4.207H13.3V.015H9.724a9.691,9.691,0,0,0-7.27,2.708Z" transform="translate(109.826 5.571)"/>
    <path id="Path_10" class="cls-2" d="M10.985,39.672a10.768,10.768,0,0,1-4.238-.864A11.032,11.032,0,0,1,0,28.584v-.058a11.934,11.934,0,0,1,1.262-5.11,11.2,11.2,0,0,1,5.773-5.209,10.629,10.629,0,0,1,3.937-.753h7.074L18.063,0h4.1V28.584A11.053,11.053,0,0,1,11.111,39.672h-.126Zm.008-18.116a6.673,6.673,0,0,0-2.661.55,6.965,6.965,0,0,0-3.716,3.75,6.9,6.9,0,0,0-.544,2.72,6.717,6.717,0,0,0,.544,2.7A7,7,0,0,0,16,33.513a7.3,7.3,0,0,0,1.5-2.224,6.754,6.754,0,0,0,.544-2.7l0-7.034h-7.05Z" transform="translate(171.98 5.263)"/>
    <path id="Path_11" class="cls-2" d="M22.121,0a8.726,8.726,0,0,0-6.71,3.188A8.686,8.686,0,0,0,0,8.729V21.252H3.988V8.729a4.718,4.718,0,0,1,9.432,0V21.252H17.4V8.729a4.714,4.714,0,1,1,9.427,0V21.252h3.992V8.729A8.725,8.725,0,0,0,22.121,0Z" transform="translate(54.441 22.672)"/>
    <path id="Path_12" class="cls-2" d="M2.614,5.521a2.541,2.541,0,0,1-1.336-.379A2.68,2.68,0,0,1,.334,4.125,2.921,2.921,0,0,1,0,2.751,2.87,2.87,0,0,1,.342,1.366a2.573,2.573,0,0,1,4.545,0h.007a2.949,2.949,0,0,1,0,2.759A2.632,2.632,0,0,1,3.95,5.142,2.541,2.541,0,0,1,2.614,5.521ZM2.642.284A2.185,2.185,0,0,0,1.481.617a2.263,2.263,0,0,0-.825.889A2.488,2.488,0,0,0,.351,2.746a2.594,2.594,0,0,0,.305,1.24,2.313,2.313,0,0,0,.825.893,2.2,2.2,0,0,0,2.3,0,2.25,2.25,0,0,0,.824-.9,2.56,2.56,0,0,0,.318-1.253,2.53,2.53,0,0,0-.3-1.216A2.309,2.309,0,0,0,3.8.617,2.185,2.185,0,0,0,2.642.284Z" transform="translate(195.763 5.469)"/>
    <path id="Path_13" class="cls-2" d="M2.09,3.1H1.711a2.642,2.642,0,0,1-.049-.673.639.639,0,0,0-.14-.467.646.646,0,0,0-.47-.136H.359V3.1H0V0H.948l.082,0A1.312,1.312,0,0,1,1.773.23a.833.833,0,0,1,.293.686.765.765,0,0,1-.52.728.633.633,0,0,1,.367.3,1.062,1.062,0,0,1,.1.484,2.394,2.394,0,0,0,.028.409.709.709,0,0,0,.049.211V3.1ZM.35.336V1.493h.7a.78.78,0,0,0,.464-.154A.508.508,0,0,0,1.7.931.55.55,0,0,0,1.542.481a.887.887,0,0,0-.49-.147l-.059,0Z" transform="translate(197.432 6.623)"/>
    <path id="Path_14" class="cls-1" d="M32.32,3.227A12.354,12.354,0,0,0,23.763,0a17.645,17.645,0,0,0-4.924.744l-.474.141L17.874.755A17.623,17.623,0,0,0,12.925,0,12.354,12.354,0,0,0,4.368,3.228C.458,6.837-.96,12.845.656,18.9c1.6,5.945,6.866,12.92,17.581,13.015h.128A17.937,17.937,0,0,0,36.007,18.9C37.652,12.856,36.231,6.848,32.32,3.227Z" transform="translate(4.405 18.251)"/>
    <path id="Path_15" class="cls-2" d="M22.237,38.8c-.139,0-.282,0-.422-.005h-.157a24.07,24.07,0,0,1-8.329-1.479,19.949,19.949,0,0,1-6.135-3.678A21.366,21.366,0,0,1,.782,23.233C-1.182,15.936.615,8.62,5.471,4.14A15.672,15.672,0,0,1,16.093,0l.257,0a20.815,20.815,0,0,1,5.419.748A20.87,20.87,0,0,1,27.169,0l.254,0A15.688,15.688,0,0,1,38.052,4.136c4.849,4.478,6.653,11.795,4.709,19.1A21.308,21.308,0,0,1,22.238,38.8h0ZM16.112,3.432A12.327,12.327,0,0,0,7.787,6.659c-3.92,3.607-5.342,9.611-3.712,15.669a17.8,17.8,0,0,0,5.37,8.7A16.746,16.746,0,0,0,14.611,34.1a20.544,20.544,0,0,0,7.045,1.24h.132c.129,0,.259,0,.388,0a17.938,17.938,0,0,0,17.253-13.02v.009c1.628-6.048.214-12.055-3.691-15.678A12.328,12.328,0,0,0,27.411,3.43l-.229,0a17.654,17.654,0,0,0-4.924.744l-.473.141-.491-.132a17.6,17.6,0,0,0-4.949-.751Z" transform="translate(0.998 14.824)"/>
    <path id="Path_16" class="cls-2" d="M15.079,13.844A59.046,59.046,0,0,1,25.34,9.577a49.162,49.162,0,0,0-9.188,1.488A13.787,13.787,0,0,0,17.888,4a8.149,8.149,0,0,1-3.233,5.346,5.084,5.084,0,0,1-.639.351,54.926,54.926,0,0,0,1.2-9.7A57.084,57.084,0,0,0,11.5,9.708a11.726,11.726,0,0,0-7.122-1.7A6.944,6.944,0,0,1,9.1,10.518a4.588,4.588,0,0,1,.5.889A49.536,49.536,0,0,0,0,10.994a43.539,43.539,0,0,1,10.842,3.1,4.148,4.148,0,0,0,4.237-.25Z" transform="translate(10.082 0.006)"/>
    <path id="Path_17" class="cls-2" d="M7.68,19.815a10.269,10.269,0,0,1-5.463-3.652A10.634,10.634,0,0,1,.065,8.473,10.209,10.209,0,0,1,4.189,1.325l.3-.2L4.266.84a3.236,3.236,0,0,1-.319-.5A9.968,9.968,0,0,1,6.525,0h.193a10.268,10.268,0,0,1,7.747,3.528,6.01,6.01,0,0,1-5.986,5.5l-.142,0a7.079,7.079,0,0,0-4.653,1.249,3.063,3.063,0,0,0-1.062,2.379,2.523,2.523,0,0,0,.354,1.472,5.046,5.046,0,0,0,.99-.774A12.16,12.16,0,0,1,5.45,12.177a4.947,4.947,0,0,0-.911,4.2,6.212,6.212,0,0,0,3.142,3.437ZM10.443,3.251h0a1.265,1.265,0,1,0,1.264,1.265,1.263,1.263,0,0,0-1.264-1.265Z" transform="translate(12.322 24.482)"/>
    <path id="Path_18" class="cls-2" d="M7.735,19.81A10.247,10.247,0,0,1,0,16.286a6,6,0,0,1,5.977-5.5l.147,0a7.073,7.073,0,0,0,4.653-1.25,3.068,3.068,0,0,0,1.062-2.382,2.529,2.529,0,0,0-.354-1.474,4.833,4.833,0,0,0-.956.745A11.671,11.671,0,0,1,8.985,7.636,4.944,4.944,0,0,0,9.9,3.427,6.077,6.077,0,0,0,6.776,0a10.256,10.256,0,0,1,5.47,3.65A10.626,10.626,0,0,1,14.4,11.336a10.22,10.22,0,0,1-4.124,7.152l-.3.2.22.284a3.562,3.562,0,0,1,.321.5,9.993,9.993,0,0,1-2.562.335H7.735Zm-3.7-5.774h0a1.265,1.265,0,1,0,.9.372,1.26,1.26,0,0,0-.9-.372Z" transform="translate(18.71 24.145)"/>
  </g>
</svg>
