<svg xmlns="http://www.w3.org/2000/svg" viewBox="0 0 16 18">
  <defs>
    <style>
      .cls-1 {
        fill: #fff;
      }
    </style>
  </defs>
  <path id="message-alt" class="cls-1" d="M5.314,13.472q0-.015,0-.03Zm0-.15v0Zm.036,1.71c2.38-2.216,2.673-2.39,3.372-2.461,3.157-.318,5.5-2.662,5.5-5.368C14.222,4.27,11.48,1.8,8,1.8S1.778,4.271,1.778,7.2a5.5,5.5,0,0,0,2.715,4.461,1.676,1.676,0,0,1,.836,1.6q0,.068-.008.135c.02.3.028.828.029,1.633ZM8.9,14.363a35.693,35.693,0,0,0-3.84,3.4.881.881,0,0,1-.964.163.9.9,0,0,1-.53-.831q.027-3.189-.021-3.636c-.016-.156.028-.252,0-.27A7.29,7.29,0,0,1,0,7.2C0,3.226,3.582,0,8,0s8,3.226,8,7.2c0,3.705-3.107,6.758-7.1,7.16Z"/>
</svg>
