<svg xmlns="http://www.w3.org/2000/svg" viewBox="0 0 200 63">
  <defs>
    <style>
      .cls-1 {
        fill: none;
      }

      .cls-2 {
        fill: #fff;
      }
    </style>
  </defs>
  <g id="myfood-logo" transform="translate(-0.053)">
    <path id="Path_1" data-name="Path 1" class="cls-1" d="M721.173,288.37a7.157,7.157,0,1,0,7.135,7.155,7.148,7.148,0,0,0-7.135-7.155Z" transform="translate(-587.857 -261.778)"/>
    <path id="Path_2" data-name="Path 2" class="cls-1" d="M836.93,289.454a7,7,0,0,0-3.716,3.75,6.936,6.936,0,0,0-.544,2.72,6.768,6.768,0,0,0,.544,2.7,7.131,7.131,0,0,0,1.505,2.224,6.974,6.974,0,0,0,9.869,0,7.312,7.312,0,0,0,1.5-2.224,6.8,6.8,0,0,0,.544-2.7V288.9h-7.011a6.7,6.7,0,0,0-2.693.554Z" transform="translate(-657.57 -262.088)"/>
    <path id="Path_3" data-name="Path 3" class="cls-1" d="M886.723,241.473a.555.555,0,0,0-.161-.451.893.893,0,0,0-.548-.145h-.643v1.158h.672a.778.778,0,0,0,.495-.153A.5.5,0,0,0,886.723,241.473Z" transform="translate(-688.537 -233.919)"/>
    <path id="Path_4" data-name="Path 4" class="cls-1" d="M780.263,288.37a7.157,7.157,0,1,0,7.135,7.155,7.148,7.148,0,0,0-7.135-7.155Z" transform="translate(-622.579 -261.778)"/>
    <path id="Path_5" data-name="Path 5" class="cls-1" d="M885.576,239.26a2.308,2.308,0,0,0-.825-.893,2.189,2.189,0,0,0-2.322,0,2.264,2.264,0,0,0-.825.889,2.485,2.485,0,0,0-.305,1.24,2.584,2.584,0,0,0,.305,1.24,2.316,2.316,0,0,0,.825.893,2.2,2.2,0,0,0,2.305,0,2.259,2.259,0,0,0,.825-.9,2.58,2.58,0,0,0,.305-1.24A2.527,2.527,0,0,0,885.576,239.26Zm-.866,2.725h-.379a2.659,2.659,0,0,1-.049-.674.634.634,0,0,0-.14-.467.65.65,0,0,0-.47-.136h-.693v1.278h-.359v-3.1h.949a1.317,1.317,0,0,1,.825.227.828.828,0,0,1,.293.686.765.765,0,0,1-.52.728.631.631,0,0,1,.367.3,1.044,1.044,0,0,1,.1.484v.413a.722.722,0,0,0,.049.211Z" transform="translate(-686.145 -232.253)"/>
    <path id="Path_6" data-name="Path 6" class="cls-2" d="M638.605,281.54h-4.157v13.2a4.713,4.713,0,0,1-9.39-.587V281.631H621.07v12.523a8.725,8.725,0,0,0,8.7,8.724,8.579,8.579,0,0,0,4.677-1.373v10.369a5.162,5.162,0,0,1-1.3,3.307,5.762,5.762,0,0,1-4.268,1.418H625.3v4.172h3.576a9.676,9.676,0,0,0,7.275-2.708,9.278,9.278,0,0,0,2.474-6.251Z" transform="translate(-533.234 -257.771)"/>
    <path id="Path_7" data-name="Path 7" class="cls-2" d="M715.485,278.7a11.163,11.163,0,1,0,11.135,11.163A11.149,11.149,0,0,0,715.485,278.7Zm0,18.311a7.157,7.157,0,1,1,7.134-7.155,7.148,7.148,0,0,1-7.134,7.155Z" transform="translate(-582.17 -256.106)"/>
    <path id="Path_8" data-name="Path 8" class="cls-2" d="M774.575,278.7a11.163,11.163,0,1,0,11.135,11.163A11.149,11.149,0,0,0,774.575,278.7Zm0,18.311a7.157,7.157,0,1,1,7.135-7.155,7.148,7.148,0,0,1-7.135,7.155Z" transform="translate(-616.891 -256.106)"/>
    <path id="Path_9" data-name="Path 9" class="cls-2" d="M674.554,240.268a9.278,9.278,0,0,0-2.454,6.255v30.293h4.157V259.977h9v-4.172h-9v-9.327a5.167,5.167,0,0,1,1.307-3.308,5.762,5.762,0,0,1,4.264-1.418H685.4V237.56h-3.576A9.691,9.691,0,0,0,674.554,240.268Z" transform="translate(-563.22 -231.974)"/>
    <path id="Path_10" data-name="Path 10" class="cls-2" d="M840.856,254.235h-7.011a10.659,10.659,0,0,0-4,.752,11.186,11.186,0,0,0-5.773,5.209,11.862,11.862,0,0,0-1.262,5.11v.058a11.031,11.031,0,0,0,6.747,10.224,10.831,10.831,0,0,0,4.31.864,11.053,11.053,0,0,0,11.106-11.088V236.78h-4.1Zm0,11.134a6.8,6.8,0,0,1-.544,2.7,7.316,7.316,0,0,1-1.5,2.224,7,7,0,0,1-11.386-2.237,6.765,6.765,0,0,1-.544-2.7,6.936,6.936,0,0,1,.544-2.72,7,7,0,0,1,3.716-3.75,6.7,6.7,0,0,1,2.7-.55h7.011Z" transform="translate(-651.776 -231.517)"/>
    <path id="Path_11" data-name="Path 11" class="cls-2" d="M559.921,278.884a8.726,8.726,0,0,0-6.71,3.188,8.686,8.686,0,0,0-15.411,5.54v12.523h3.988V287.612a4.718,4.718,0,0,1,9.432,0v12.523H555.2V287.612a4.714,4.714,0,1,1,9.427,0v12.523h3.992V287.612A8.725,8.725,0,0,0,559.921,278.884Z" transform="translate(-484.305 -256.211)"/>
    <path id="Path_12" data-name="Path 12" class="cls-2" d="M885.367,238.633a2.573,2.573,0,0,0-4.545,0,2.858,2.858,0,0,0-.342,1.385,2.9,2.9,0,0,0,.334,1.373,2.66,2.66,0,0,0,.944,1.017,2.539,2.539,0,0,0,2.672,0,2.63,2.63,0,0,0,.944-1.017,2.95,2.95,0,0,0,0-2.758Zm-.276,2.613a2.26,2.26,0,0,1-.825.9,2.2,2.2,0,0,1-2.305,0,2.316,2.316,0,0,1-.825-.893,2.584,2.584,0,0,1-.305-1.24,2.485,2.485,0,0,1,.305-1.24,2.263,2.263,0,0,1,.825-.889,2.189,2.189,0,0,1,2.322,0,2.31,2.31,0,0,1,.825.893,2.525,2.525,0,0,1,.3,1.216,2.58,2.58,0,0,1-.318,1.257Z" transform="translate(-685.663 -231.798)"/>
    <path id="Path_13" data-name="Path 13" class="cls-2" d="M886.537,242.5a1.045,1.045,0,0,0-.1-.484.631.631,0,0,0-.367-.3.765.765,0,0,0,.52-.728.828.828,0,0,0-.293-.686,1.318,1.318,0,0,0-.825-.227h-.948v3.1h.359V241.9h.693a.65.65,0,0,1,.47.136.633.633,0,0,1,.14.467,2.657,2.657,0,0,0,.049.674h.379v-.058a.723.723,0,0,1-.049-.211A2.416,2.416,0,0,1,886.537,242.5Zm-.5-1.087a.778.778,0,0,1-.495.153h-.668v-1.158h.643a.893.893,0,0,1,.549.145.555.555,0,0,1,.161.451A.5.5,0,0,1,886.034,241.412Z" transform="translate(-688.038 -233.449)"/>
    <path id="Path_14" data-name="Path 14" class="cls-1" d="M448.789,271.422a12.354,12.354,0,0,0-8.557-3.225,17.645,17.645,0,0,0-4.924.744l-.474.141-.491-.132a17.623,17.623,0,0,0-4.949-.752,12.354,12.354,0,0,0-8.557,3.225c-3.91,3.609-5.328,9.617-3.712,15.669,1.6,5.945,6.866,12.92,17.581,13.015h.128a17.937,17.937,0,0,0,17.642-13.015C454.121,281.051,452.7,275.043,448.789,271.422Z" transform="translate(-413.01 -249.944)"/>
    <path id="Path_15" data-name="Path 15" class="cls-2" d="M446.264,264.041a15.727,15.727,0,0,0-10.883-4.134,20.855,20.855,0,0,0-5.4.752,20.833,20.833,0,0,0-5.419-.748,15.715,15.715,0,0,0-10.879,4.134c-4.858,4.482-6.652,11.8-4.689,19.093,1.914,7.111,8.227,15.45,20.876,15.562h.157a21.317,21.317,0,0,0,20.946-15.562C452.916,275.841,451.118,268.523,446.264,264.041Zm1.377,18.191A17.946,17.946,0,0,1,430,295.248h-.132c-10.722-.1-15.981-7.07-17.581-13.015-1.629-6.053-.21-12.06,3.712-15.669a12.354,12.354,0,0,1,8.557-3.225,17.62,17.62,0,0,1,4.949.752l.491.132.474-.141a17.644,17.644,0,0,1,4.924-.744,12.355,12.355,0,0,1,8.557,3.225c3.9,3.618,5.32,9.625,3.691,15.678Z" transform="translate(-408.16 -245.081)"/>
    <path id="Path_16" data-name="Path 16" class="cls-2" d="M445.312,237.9a59.046,59.046,0,0,1,10.261-4.267,49.162,49.162,0,0,0-9.188,1.488,13.787,13.787,0,0,0,1.736-7.062,8.149,8.149,0,0,1-3.233,5.346,5.084,5.084,0,0,1-.639.351,54.926,54.926,0,0,0,1.2-9.7,57.084,57.084,0,0,0-3.712,9.708,11.726,11.726,0,0,0-7.122-1.7,6.944,6.944,0,0,1,4.718,2.51,4.588,4.588,0,0,1,.5.889,49.536,49.536,0,0,0-9.6-.413,43.539,43.539,0,0,1,10.842,3.1A4.148,4.148,0,0,0,445.312,237.9Z" transform="translate(-421.097 -224.05)"/>
    <path id="Path_17" data-name="Path 17" class="cls-2" d="M443.363,303.079a10.209,10.209,0,0,1-5.473-3.655,10.686,10.686,0,0,1-2.153-7.69,10.191,10.191,0,0,1,4.124-7.148l.3-.2-.223-.285a3.215,3.215,0,0,1-.318-.5,9.951,9.951,0,0,1,2.648-.339,10.27,10.27,0,0,1,7.869,3.527,6.01,6.01,0,0,1-6.128,5.5c-7.423,0-5.567,5.1-5.361,5.1s1.786-1.567,2.474-1.951a4.974,4.974,0,0,0-.911,4.2A6.241,6.241,0,0,0,443.363,303.079Zm2.755-16.566a1.265,1.265,0,1,0,1.262,1.265A1.264,1.264,0,0,0,446.118,286.513Z" transform="translate(-424.296 -258.779)"/>
    <path id="Path_18" data-name="Path 18" class="cls-2" d="M457.93,282.45A10.2,10.2,0,0,1,463.4,286.1a10.677,10.677,0,0,1,2.153,7.686,10.2,10.2,0,0,1-4.124,7.153l-.3.2.219.285a3.637,3.637,0,0,1,.322.5,9.987,9.987,0,0,1-2.652.335,10.249,10.249,0,0,1-7.864-3.523,6,6,0,0,1,6.124-5.5c7.423,0,5.567-5.106,5.361-5.106s-1.786,1.571-2.5,1.956a4.969,4.969,0,0,0,.911-4.209A6.112,6.112,0,0,0,457.93,282.45Zm-2.742,16.567a1.265,1.265,0,1,0-1.262-1.265,1.264,1.264,0,0,0,1.262,1.265Z" transform="translate(-433.39 -258.305)"/>
  </g>
</svg>
