<svg xmlns="http://www.w3.org/2000/svg" viewBox="0 0 20 20">
  <defs>
    <style>
      .cls-1 {
        fill: #ced2d0;
      }
    </style>
  </defs>
  <path id="key" class="cls-1" d="M8.3,15.75l3.6-3.6.988.176A4.81,4.81,0,1,0,9.009,8.435l.177.989L2.458,16.153l.17,2.55,2.55.17L6.942,17.11l-.68-.68a.962.962,0,1,1,1.361-1.36l.68.68Zm.68-12.926a6.734,6.734,0,1,1,3.574,11.391L5.922,20.852,1.66,20.568a.962.962,0,0,1-.9-.9L.48,15.409,7.116,8.773A6.727,6.727,0,0,1,8.982,2.824Zm4.081,5.442a1.924,1.924,0,1,1,2.721,0,1.924,1.924,0,0,1-2.721,0Z" transform="translate(-0.48 -0.852)"/>
</svg>
