<svg id="Artwork" xmlns="http://www.w3.org/2000/svg" width="135" height="197" viewBox="0 0 135 197">
  <g id="Rectangle" transform="translate(0 10)" fill="#ede6db" stroke="#e2d9ca" stroke-miterlimit="10" stroke-width="2">
    <rect width="135" height="187" rx="15" stroke="none"/>
    <rect x="1" y="1" width="133" height="185" rx="14" fill="none"/>
  </g>
  <rect id="Rectangle_Copy" data-name="Rectangle Copy" width="113" height="144" rx="2" transform="translate(11 37)" fill="#fff"/>
  <g id="Group" transform="translate(76 133)">
    <ellipse id="Oval_8" data-name="Oval 8" cx="15.411" cy="15.361" rx="15.411" ry="15.361" transform="translate(0.739 0.672)" fill="#2ea636"/>
    <path id="Shape" d="M4.939,10.061a1.5,1.5,0,0,0,2.121,0l7.5-7.5A1.5,1.5,0,0,0,12.44.439L6,6.878,2.56,3.439A1.5,1.5,0,1,0,.439,5.56Z" transform="translate(8.739 11.672)" fill="#fff"/>
  </g>
  <rect id="Rectangle_3" data-name="Rectangle 3" width="81" height="7" rx="3.5" transform="translate(27 70)" fill="#ddf0de"/>
  <rect id="Rectangle_3_Copy" data-name="Rectangle 3 Copy" width="81" height="7" rx="3.5" transform="translate(27 86)" fill="#ddf0de"/>
  <rect id="Rectangle_3_Copy_2" data-name="Rectangle 3 Copy 2" width="81" height="7" rx="3.5" transform="translate(27 103)" fill="#ddf0de"/>
  <rect id="Rectangle_3_Copy_3" data-name="Rectangle 3 Copy 3" width="36" height="7" rx="3.5" transform="translate(27 138)" fill="#ddf0de"/>
  <rect id="Rectangle_3_Copy_4" data-name="Rectangle 3 Copy 4" width="22" height="7" rx="3.5" transform="translate(27 152)" fill="#ddf0de"/>
  <path id="Rectangle_Copy_3" data-name="Rectangle Copy 3" d="M0,0H52V26.978A5,5,0,0,1,45.364,31.7L27.636,25.566a5,5,0,0,0-3.271,0L6.636,31.7A5,5,0,0,1,0,26.978Z" transform="translate(42 20)" fill="none" stroke="#2a2724" stroke-miterlimit="10" stroke-width="3"/>
  <rect id="Rectangle_Copy_2" data-name="Rectangle Copy 2" width="77" height="25" rx="6" transform="translate(29)" fill="#2ea636"/>
</svg>
