<svg xmlns="http://www.w3.org/2000/svg" viewBox="0 0 15 15">
  <defs>
    <style>
      .cls-1 {
        fill: #6c7a73;
      }
    </style>
  </defs>
  <g id="refresh-arrow" transform="translate(0 -0.003)">
    <path id="Path_45" data-name="Path 45" class="cls-1" d="M14.619.677a.564.564,0,0,0-.684.137l-1.27,1.26A7.58,7.58,0,0,0,10.278.545,7.4,7.4,0,0,0,4.59.6,7.409,7.409,0,0,0,.6,4.593a7.406,7.406,0,0,0,0,5.82A7.409,7.409,0,0,0,4.59,14.407,7.3,7.3,0,0,0,7.5,15a7.447,7.447,0,0,0,3.193-.708,7.332,7.332,0,0,0,2.578-2,.321.321,0,0,0,.073-.22.271.271,0,0,0-.093-.2L11.914,10.53a.376.376,0,0,0-.244-.088.3.3,0,0,0-.225.117,4.968,4.968,0,0,1-5.884,1.548A4.951,4.951,0,0,1,2.9,9.442a4.948,4.948,0,0,1,0-3.877A4.952,4.952,0,0,1,5.562,2.9,4.871,4.871,0,0,1,7.5,2.5a4.852,4.852,0,0,1,3.408,1.338L9.561,5.189a.556.556,0,0,0-.137.674A.584.584,0,0,0,10,6.253h4.375A.633.633,0,0,0,15,5.628V1.253A.584.584,0,0,0,14.619.677Z" transform="translate(0 0)"/>
  </g>
</svg>
