<!-- Generated by IcoMoon.io -->
<svg version="1.1" xmlns="http://www.w3.org/2000/svg" width="32" height="32" viewBox="0 0 32 32" style="fill: white">
<title>aerospring</title>
<path d="M21.343 5.291c-0.698-1.38-2.172-1.723-2.747-0.629 1.959 1.198 1.791 2.933 1.791 2.933-0.541-0.744-1.221-1.352-2.007-1.795l-0.031-0.016v-0.417c0.662 0.352 1.224 0.796 1.695 1.324l0.005 0.006c-0.442-0.703-1.011-1.286-1.679-1.731l-0.021-0.013v-2.424l-0.291-0.349h-4.050l-0.312 0.276v5.201c-0.425-0.268-0.816-0.635-1.131-1.566-0.624 0.595-2.327 2.272-2.263 4.301 0.063 1.865 1.503 2.99 2.694 2.086-1.542-2.308-0.477-4.121-0.477-4.121 0.217 1.075 0.625 2.026 1.191 2.862l-0.018-0.028v0.73c-0.546-0.684-0.976-1.487-1.245-2.362l-0.014-0.051c0.145 1.21 0.596 2.293 1.271 3.198l-0.012-0.017v8.86h-1.778c-0.001 0-0.002 0-0.003 0-0.109 0-0.206 0.049-0.271 0.126l-0 0c-0.054 0.063-0.087 0.145-0.087 0.235 0 0.020 0.002 0.039 0.005 0.058l-0-0.002 0.986 6.406 1.983 1.114h1.994l0.032 0.013h1.096l1.983-1.114 0.986-6.406c0.003-0.017 0.004-0.036 0.004-0.055 0-0.199-0.161-0.36-0.36-0.36-0 0-0.001 0-0.001 0h-1.915v-2.494c0.829 0.499 1.918-0.209 2.204-1.553 0.351-1.644-0.795-3.258-1.219-3.835-0.338 0.611-0.659 0.876-0.987 1.039v-6.489c1.089 0.541 1.652-0.121 2.798 1.078 0.267-0.666 0.962-2.523 0.202-4.019zM20.276 21.91c0.001 0.002 0.002 0.005 0.002 0.007s-0.001 0.005-0.002 0.007l0-0-0.96 6.242-1.758 0.987h-0.944c-0.025-0.007-0.055-0.011-0.085-0.011-0.001 0-0.002 0-0.003 0h-1.907l-1.758-0.989-0.96-6.242c-0-0.001-0-0.002-0-0.003 0-0.010 0.008-0.018 0.018-0.018 0 0 0 0 0 0h0.381l7.963 0.013c0.005 0 0.010 0.003 0.013 0.006l0 0zM19.038 15.539s0.525 1.417-0.69 2.953v-0.69c0.232-0.378 0.434-0.814 0.581-1.274l0.012-0.043c-0.186 0.361-0.383 0.67-0.604 0.959l0.011-0.015v-0.585c0.252-0.374 0.483-0.803 0.672-1.255l0.018-0.050zM16.937 18.246c0.418-0.251 0.771-0.562 1.061-0.926l0.006-0.008v0.533c-0.506 0.575-1.141 1.025-1.86 1.307l-0.033 0.011c0 0.016 0.031 0.323 0.43 0.304 0.186 0 0.839-0.364 1.455-1.167v3.255h-3.968v-8.465c0.166 0.197 0.373 0.354 0.608 0.459l0.011 0.004c0.47 0.103 0.569-0.251 0.574-0.27-0.459-0.271-0.852-0.593-1.191-0.966l-0.004-0.004v-0.695c0.126 0.142 0.259 0.271 0.401 0.389l0.006 0.005c1.052-0.271 1.747-1.579 0.874-2.98-0.311-0.506-0.746-0.908-1.264-1.17l-0.018-0.008v-5.246l0.1-0.089h3.759l0.108 0.129v2.101c-0.509-0.268-0.91-0.347-1.038-0.323-0.39 0.087-0.341 0.386-0.338 0.402 0.508 0.050 0.974 0.181 1.402 0.38l-0.027-0.011v0.422c-0.091-0.037-0.205-0.075-0.322-0.107l-0.021-0.005c-0.682 0.569-0.747 1.763 0.354 2.52v6.84c-0.415 0.149-0.85 0.268-1.348 0.823-0.915 1.015-0.538 2.18 0.281 2.555z"></path>
</svg>
