<!-- Generated by IcoMoon.io -->
<svg version="1.1" xmlns="http://www.w3.org/2000/svg" width="32" height="32" viewBox="0 0 32 32" style="fill: white">
<title>perma</title>
<path d="M28.346 9.697l-0.018-0.239-6.833-2.925h-0.281l-13.11 6.486c-0.028 0.001-0.053 0.012-0.071 0.029l0-0-0.011 0.015-4.378 2.161-0.019 0.209-0.039 0.079-0.123 0.076 0.743 4.040 0.118 0.199 6.465 5.304 0.141-0.074h0.071l0.191 0.089 16.646-11.379 0.142-0.228 0.554-3.717zM22.221 7.575l-0.013 0.010c-0.021 0.020-0.034 0.048-0.034 0.079 0 0.060 0.048 0.108 0.108 0.108s0.108-0.048 0.108-0.108c0-0.006-0.001-0.012-0.002-0.018l0 0.001 0.183 0.078c0.019 0.031 0.053 0.051 0.091 0.051 0.008 0 0.017-0.001 0.024-0.003l-0.001 0 0.625 0.268c-0.001 0.006-0.002 0.013-0.002 0.020 0 0.060 0.048 0.108 0.108 0.108 0.029 0 0.055-0.011 0.075-0.030l-0 0 0.013-0.016 0.593 0.254c-0.021 0.020-0.034 0.048-0.034 0.079 0 0.060 0.048 0.108 0.108 0.108s0.108-0.048 0.108-0.108c0-0 0-0.001 0-0.001v0l0.2 0.086c0.017 0.017 0.040 0.027 0.066 0.029l0 0 0.646 0.28c-0 0.003-0 0.006-0 0.010 0 0.059 0.048 0.107 0.107 0.107 0.030 0 0.057-0.012 0.076-0.032l0-0 0.593 0.254c-0.015 0.018-0.023 0.041-0.023 0.067 0 0.059 0.048 0.107 0.107 0.107 0.054 0 0.098-0.040 0.106-0.092l0-0.001 0.646 0.268c-0.025 0.002-0.048 0.013-0.065 0.029l0-0c-0.020 0.020-0.032 0.047-0.032 0.077 0 0.060 0.048 0.108 0.108 0.108s0.108-0.048 0.108-0.108c0-0.025-0.008-0.048-0.023-0.066l0 0 0.189 0.081c0.004 0.056 0.050 0.099 0.106 0.099 0.026 0 0.050-0.009 0.068-0.025l-0 0 0.204 0.087-0.209 0.129c-0.019-0.016-0.043-0.026-0.069-0.026-0.059 0-0.107 0.048-0.107 0.107 0 0.009 0.001 0.018 0.003 0.026l-0-0.001-0.556 0.344c0-0.001 0-0.002 0-0.003 0-0.060-0.048-0.108-0.108-0.108s-0.108 0.048-0.108 0.108c0 0.043 0.026 0.081 0.062 0.098l0.001 0-0.293 0.181c-0.016-0.010-0.035-0.015-0.055-0.015-0.059 0-0.107 0.048-0.107 0.107 0 0.001 0 0.002 0 0.002v-0l-0.551 0.349c-0.004-0.020-0.014-0.038-0.027-0.052l0 0c-0.020-0.022-0.049-0.035-0.081-0.035-0.061 0-0.11 0.049-0.11 0.11 0 0.029 0.011 0.056 0.030 0.075l-0-0h0.010l-0.301 0.186c-0.006-0.001-0.012-0.002-0.019-0.002-0.049 0-0.090 0.032-0.102 0.077l-0 0.001-0.186 0.115-0.021-0.010c0.021-0.020 0.034-0.048 0.034-0.079 0-0.060-0.048-0.108-0.108-0.108-0.058 0-0.106 0.046-0.108 0.104v0l-0.604-0.291c0.039-0.017 0.066-0.055 0.066-0.1 0-0.060-0.048-0.108-0.108-0.108s-0.108 0.048-0.108 0.108c0 0.010 0.001 0.020 0.004 0.029l-0-0.001-0.184-0.089c-0.018-0.032-0.052-0.053-0.091-0.053-0.006 0-0.012 0.001-0.018 0.001l0.001-0-0.351-0.17c0.001 0 0.001 0 0.002 0 0.060 0 0.108-0.048 0.108-0.108s-0.048-0.108-0.108-0.108c-0.060 0-0.108 0.048-0.108 0.108 0 0.027 0.010 0.051 0.025 0.070l-0-0-0.192-0.092c-0.008-0.052-0.052-0.092-0.106-0.092-0.021 0-0.040 0.006-0.056 0.016l0-0-0.595-0.286c0-0.002 0-0.004 0-0.006s-0-0.004-0-0.006v0c0-0 0-0 0-0 0-0.060-0.048-0.108-0.108-0.108-0.029 0-0.055 0.011-0.074 0.030l0-0-0.23-0.11v-0.124c0.018-0.019 0.029-0.045 0.029-0.073s-0.011-0.054-0.029-0.073l0 0 0.015-0.255c0.008-0.015 0.013-0.033 0.013-0.052s-0.005-0.037-0.014-0.052l0 0.001 0.124-2.151zM4.941 15.431c0.019 0.020 0.047 0.033 0.077 0.033 0.059 0 0.107-0.048 0.107-0.107 0-0.006-0-0.012-0.001-0.018l0 0.001 0.577-0.286v0.008c0.020 0.021 0.048 0.034 0.079 0.034 0.059 0 0.107-0.048 0.107-0.107 0-0.011-0.002-0.021-0.004-0.030l0 0.001 0.583-0.283 0.015 0.018c0.019 0.019 0.046 0.031 0.075 0.031 0.060 0 0.108-0.048 0.108-0.108 0-0.013-0.002-0.025-0.006-0.036l0 0.001 0.571-0.283c0.005 0.011 0.012 0.021 0.019 0.029l-0-0c0.020 0.024 0.050 0.040 0.083 0.040 0.059 0 0.107-0.048 0.107-0.107 0-0.021-0.006-0.041-0.017-0.058l0 0 0.571-0.283c0.014 0.045 0.055 0.078 0.104 0.078 0.060 0 0.108-0.048 0.108-0.108 0-0.024-0.008-0.047-0.022-0.065l0 0 0.574-0.284c0.012 0.046 0.054 0.080 0.103 0.080 0.059 0 0.107-0.048 0.107-0.107 0-0.025-0.008-0.048-0.023-0.066l0 0 0.579-0.286c0.003 0.057 0.049 0.102 0.107 0.102 0.059 0 0.107-0.048 0.107-0.107 0-0.032-0.014-0.061-0.037-0.081l-0-0 0.587-0.291c-0 0.001-0 0.002-0 0.003 0 0.060 0.048 0.108 0.108 0.108s0.108-0.048 0.108-0.108c0-0.030-0.012-0.057-0.032-0.077v0l-0.013-0.011 0.598-0.296c-0.001 0.004-0.001 0.009-0.001 0.014 0 0.060 0.048 0.108 0.108 0.108s0.108-0.048 0.108-0.108c0-0.040-0.021-0.075-0.053-0.093l-0.001-0 0.352-0.175h0.021c0.013-0.008 0.024-0.018 0.032-0.030l0-0 0.204-0.102c-0.003 0.009-0.004 0.019-0.004 0.030 0 0.060 0.048 0.108 0.108 0.108s0.108-0.048 0.108-0.108c0-0.046-0.029-0.085-0.069-0.101l-0.001-0 0.338-0.162c0.004 0 0.008 0.001 0.012 0.001 0.038 0 0.071-0.020 0.090-0.050l0-0 0.192-0.1c-0.006 0.013-0.010 0.029-0.010 0.046 0 0.060 0.048 0.108 0.108 0.108s0.108-0.048 0.108-0.108c0-0.052-0.036-0.095-0.084-0.106l-0.001-0 0.335-0.162c0.009 0.003 0.019 0.004 0.030 0.004 0.045 0 0.084-0.028 0.099-0.068l0-0.001 0.194-0.097c-0.013 0.017-0.021 0.039-0.021 0.063 0 0.059 0.048 0.107 0.107 0.107s0.107-0.048 0.107-0.107c0-0.058-0.046-0.105-0.104-0.107h-0l0.341-0.162c0.013 0.007 0.029 0.010 0.046 0.010 0.051 0 0.094-0.036 0.104-0.084l0-0.001 0.231-0.115c-0.011 0.005-0.021 0.012-0.029 0.019l0-0c-0.021 0.020-0.033 0.048-0.033 0.078 0 0.060 0.048 0.108 0.108 0.108s0.108-0.048 0.108-0.108c0-0.060-0.048-0.108-0.108-0.108-0.014 0-0.028 0.003-0.040 0.008l0.001-0 0.365-0.189c0.016 0.010 0.035 0.016 0.055 0.016 0.055 0 0.101-0.042 0.106-0.096l0-0 0.593-0.294c0.018 0.015 0.042 0.024 0.068 0.024 0.059 0 0.107-0.048 0.107-0.107 0-0.002-0-0.004-0-0.005v0l0.583-0.289c0.020 0.022 0.048 0.035 0.079 0.035 0.059 0 0.107-0.048 0.107-0.107 0-0.007-0.001-0.013-0.002-0.020l0 0.001 0.579-0.289v0.010c0.020 0.022 0.048 0.035 0.079 0.035 0.059 0 0.107-0.048 0.107-0.107 0-0.011-0.002-0.023-0.005-0.033l0 0.001 0.572-0.283c0.020 0.029 0.053 0.048 0.090 0.048 0.060 0 0.108-0.048 0.108-0.108 0-0.012-0.002-0.024-0.006-0.036l0 0.001 0.57-0.283c0.018 0.036 0.054 0.060 0.096 0.060 0.059 0 0.107-0.048 0.107-0.107 0-0.017-0.004-0.034-0.011-0.048l0 0.001 0.579-0.281c0.016 0.040 0.054 0.068 0.099 0.068 0.059 0 0.107-0.048 0.107-0.107 0-0.020-0.006-0.040-0.016-0.056l0 0 0.574-0.284c0.011 0.048 0.053 0.083 0.104 0.083 0.059 0 0.107-0.048 0.107-0.107 0-0.026-0.009-0.050-0.025-0.069l0 0 0.58-0.288c0.007 0.053 0.052 0.093 0.106 0.093 0.059 0 0.107-0.048 0.107-0.107 0-0.028-0.011-0.053-0.028-0.072l0 0 0.196-0.097-0.162 2.675-0.118 0.066c-0.013-0.006-0.027-0.009-0.043-0.009-0.054 0-0.098 0.040-0.105 0.091l-0 0.001-0.577 0.323v-0.010c-0.019-0.019-0.046-0.031-0.075-0.031-0.060 0-0.108 0.048-0.108 0.108 0 0.013 0.002 0.025 0.006 0.036l-0-0.001-0.561 0.31c-0.008-0.052-0.053-0.092-0.107-0.092-0.060 0-0.108 0.048-0.108 0.108 0 0.030 0.013 0.058 0.033 0.078l0 0-0.349 0.196c-0.014 0.004-0.026 0.011-0.036 0.020l0-0-0.213 0.118c0.005-0.012 0.009-0.027 0.009-0.042 0-0.060-0.048-0.108-0.108-0.108s-0.108 0.048-0.108 0.108c0 0.054 0.039 0.099 0.091 0.107l0.001 0-0.323 0.175c-0.016-0.010-0.035-0.015-0.055-0.015-0.058 0-0.105 0.046-0.107 0.104v0l-0.569 0.315-0.015-0.018c-0.020-0.022-0.048-0.036-0.080-0.036-0.059 0-0.107 0.048-0.107 0.107 0 0.019 0.005 0.037 0.014 0.053l-0-0.001-0.564 0.312c-0.002-0.041-0.028-0.076-0.064-0.092l-0.001-0c-0.012-0.005-0.026-0.008-0.041-0.008-0.060 0-0.108 0.048-0.108 0.108 0 0.029 0.011 0.055 0.029 0.074l-0-0 0.015 0.011-0.323 0.179c-0.037 0-0.070 0.020-0.089 0.050l-0 0-0.2 0.111c0.012-0.017 0.019-0.038 0.019-0.061 0-0.060-0.048-0.108-0.108-0.108s-0.108 0.048-0.108 0.108c0 0.060 0.048 0.108 0.108 0.108 0.001 0 0.002-0 0.004-0h-0l-0.323 0.181c-0.018-0.014-0.040-0.022-0.065-0.022-0.059 0-0.107 0.048-0.107 0.107 0 0.003 0 0.006 0 0.010l-0-0-0.564 0.309c-0.005-0.011-0.012-0.020-0.019-0.027l0 0c-0.017-0.013-0.039-0.020-0.063-0.020-0.060 0-0.108 0.048-0.108 0.108 0 0.016 0.004 0.031 0.010 0.045l-0-0.001-0.58 0.31c0-0.002 0-0.003 0-0.005 0-0.060-0.048-0.108-0.108-0.108s-0.108 0.048-0.108 0.108c0 0.040 0.022 0.075 0.054 0.094l0.001 0-0.323 0.175c-0.006-0.001-0.012-0.002-0.019-0.002-0.044 0-0.082 0.027-0.098 0.066l-0 0.001-0.205 0.12h0.010c0.020-0.020 0.032-0.047 0.032-0.077 0-0.060-0.048-0.108-0.108-0.108s-0.108 0.048-0.108 0.108c0 0.030 0.012 0.058 0.032 0.077v0c0.012 0.012 0.027 0.021 0.043 0.026l0.001 0c0.011 0.004 0.023 0.006 0.036 0.006s0.026-0.002 0.037-0.006l-0.001 0-0.354 0.196c-0.019-0.018-0.045-0.029-0.073-0.029-0.059 0-0.107 0.048-0.107 0.107 0 0.007 0.001 0.015 0.002 0.022l-0-0.001-0.561 0.31c-0.016-0.039-0.054-0.066-0.099-0.066-0.059 0-0.107 0.048-0.107 0.107 0 0.023 0.007 0.044 0.020 0.062l-0-0-0.577 0.323c0.001-0.006 0.002-0.013 0.002-0.020 0-0.060-0.048-0.108-0.108-0.108s-0.108 0.048-0.108 0.108c0 0.045 0.028 0.084 0.067 0.1l0.001 0-0.312 0.173c-0.010-0.003-0.022-0.005-0.034-0.005-0.050 0-0.092 0.034-0.103 0.081l-0 0.001-0.583 0.323c-0.020-0.021-0.047-0.033-0.078-0.033-0.059 0-0.107 0.048-0.107 0.107 0 0.011 0.002 0.022 0.005 0.033l-0-0.001-0.561 0.31c-0.012-0.046-0.054-0.079-0.103-0.079-0.059 0-0.107 0.048-0.107 0.107 0 0.028 0.011 0.054 0.029 0.073l-0-0-0.588 0.323c0.003-0.010 0.005-0.022 0.005-0.034 0-0.060-0.048-0.108-0.108-0.108s-0.108 0.048-0.108 0.108c0 0.050 0.034 0.093 0.081 0.105l0.001 0-0.31 0.158c-0.016-0.010-0.035-0.016-0.056-0.016-0.054 0-0.099 0.040-0.106 0.093l-0 0.001-0.574 0.323-0.010-0.013c-0.019-0.021-0.047-0.034-0.078-0.034-0.045 0-0.084 0.028-0.1 0.069l-0 0.001-0.929-0.7c0.004-0.011 0.007-0.024 0.007-0.037 0-0.059-0.048-0.107-0.107-0.107-0.023 0-0.045 0.007-0.062 0.020l0-0-0.27-0.202c0.042-0.016 0.071-0.055 0.071-0.102 0-0.060-0.048-0.108-0.108-0.108-0.057 0-0.104 0.045-0.108 0.101l-0 0-0.543-0.409c-0.011-0.049-0.053-0.084-0.104-0.084-0.003 0-0.005 0-0.008 0l0-0-0.283-0.213c0.017-0.019 0.027-0.044 0.027-0.072 0-0.060-0.048-0.108-0.108-0.108-0.032 0-0.061 0.014-0.081 0.036l-0 0-0.013 0.015-0.031-0.023zM4.687 18.377v0l-0.024-0.134c0.014 0.022 0.037 0.038 0.062 0.045l0.001 0h0.021c0.001 0 0.003 0 0.005 0 0.060 0 0.108-0.048 0.108-0.108s-0.048-0.108-0.108-0.108c-0.051 0-0.093 0.035-0.105 0.082l-0 0.001-0.008-0.045c0.009-0.005 0.017-0.011 0.024-0.018l-0 0c0.021-0.020 0.034-0.047 0.034-0.078 0-0.055-0.042-0.1-0.095-0.106l-0-0-0.031-0.162c0.008 0.002 0.017 0.003 0.026 0.003 0.060 0 0.108-0.048 0.108-0.108s-0.048-0.108-0.108-0.108c-0.023 0-0.045 0.007-0.062 0.020l0-0-0.192-1.067c0-0.002 0-0.004 0-0.007 0-0.016-0.004-0.032-0.010-0.046l0 0.001-0.010-0.049 0.196 0.147c0.015 0.031 0.043 0.053 0.077 0.058l0.001 0 0.301 0.226c-0.008 0.014-0.012 0.032-0.012 0.050 0 0.059 0.048 0.107 0.107 0.107 0.026 0 0.049-0.009 0.067-0.024l-0 0 0.276 0.209c-0.051 0.009-0.090 0.053-0.090 0.107 0 0.060 0.048 0.108 0.108 0.108s0.108-0.048 0.108-0.108c0-0.004-0-0.008-0.001-0.012l0 0 0.54 0.407c0.002 0.058 0.049 0.104 0.107 0.104 0.010 0 0.019-0.001 0.028-0.004l-0.001 0 0.252 0.191c-0.034 0.018-0.057 0.054-0.057 0.095s0.023 0.076 0.057 0.094l0.001 0-0.312 0.173c-0.022 0.004-0.042 0.014-0.057 0.029v0l-0.124 0.068c-0.009-0.040-0.039-0.072-0.078-0.082l-0.001-0c-0.005-0.001-0.010-0.001-0.015-0.001s-0.011 0-0.016 0.001l0.001-0c-0.019-0.017-0.044-0.027-0.072-0.027-0.060 0-0.108 0.048-0.108 0.108 0 0.057 0.044 0.104 0.101 0.108l0 0-0.323 0.176c-0.016-0.010-0.036-0.016-0.057-0.016-0.052 0-0.096 0.037-0.105 0.087l-0 0.001c-0.020-0.023-0.049-0.037-0.081-0.037s-0.061 0.014-0.081 0.037l-0 0c-0.010-0.051-0.054-0.089-0.106-0.089-0.060 0-0.108 0.048-0.108 0.108s0.048 0.108 0.108 0.108c0.029 0 0.056-0.012 0.076-0.031l-0 0v-0.008c0.003 0.014 0.008 0.026 0.015 0.038l-0-0-0.246 0.136-0.037-0.202zM9.681 23.311c0.007-0.014 0.011-0.030 0.011-0.047 0-0.050-0.035-0.092-0.081-0.104l-0.001-0c-0.008-0.002-0.016-0.003-0.025-0.003-0.024 0-0.046 0.008-0.064 0.021l0-0-1.697-1.393c0.019-0.014 0.032-0.034 0.039-0.057l0-0.001c0.001-0.006 0.002-0.013 0.002-0.021 0-0.060-0.048-0.108-0.108-0.108-0.040 0-0.075 0.022-0.094 0.054l-0 0.001-0.099-0.081-1.616-1.33c0.054-0.007 0.095-0.052 0.095-0.107 0-0.060-0.048-0.108-0.108-0.108s-0.108 0.048-0.108 0.108c0 0.003 0 0.005 0 0.008l-0-0-0.664-0.545 0.28-0.162v0.015c-0.002 0.007-0.003 0.015-0.003 0.023 0 0.060 0.048 0.108 0.108 0.108 0.034 0 0.065-0.016 0.085-0.041l0-0c0.011-0.016 0.017-0.037 0.017-0.058 0-0.049-0.032-0.090-0.076-0.103l-0.001-0 0.527-0.291c-0 0.002-0 0.003-0 0.005 0 0.060 0.048 0.108 0.108 0.108s0.108-0.048 0.108-0.108c0-0.040-0.022-0.075-0.054-0.094l-0.001-0 0.496-0.275c0.008 0.032 0.029 0.059 0.058 0.072l0.001 0h0.042c0.002 0 0.004 0 0.006 0 0.059 0 0.107-0.048 0.107-0.107 0-0.030-0.012-0.057-0.032-0.076l-0-0 0.212-0.118 0.658 0.496c0.013 0.031 0.040 0.053 0.072 0.061l0.001 0h0.011l1.804 1.359c-0.032 0.013-0.056 0.040-0.065 0.074l-0 0.001c-0.002 0.007-0.003 0.015-0.003 0.023 0 0.060 0.048 0.108 0.108 0.108 0.034 0 0.065-0.016 0.085-0.041l0-0c0.012-0.015 0.020-0.034 0.021-0.055v-0l0.407 0.307 0.302 3.166zM10.943 20.819l1.791-1.102c0.029-0.005 0.054-0.021 0.071-0.043l0-0 0.561-0.347c0.001 0 0.002 0 0.004 0 0.028 0 0.053-0.010 0.072-0.028l-0 0c0.010-0.009 0.018-0.021 0.024-0.033l0-0.001 0.537-0.331c0.006 0.001 0.012 0.002 0.019 0.002 0.048 0 0.089-0.032 0.102-0.075l0-0.001 0.519-0.323c0.008 0.002 0.017 0.003 0.026 0.003 0.050 0 0.092-0.034 0.105-0.080l0-0.001s0 0 0-0.008l0.504-0.312h0.016c0.008 0.002 0.018 0.004 0.028 0.004 0.057 0 0.104-0.045 0.107-0.102v-0l0.485-0.304 0.026 0.011h0.021c0.001 0 0.002 0 0.003 0 0.058 0 0.106-0.046 0.108-0.103v-0s0 0 0-0.010l0.485-0.299c0.016 0.010 0.035 0.016 0.056 0.016 0.059 0 0.107-0.048 0.107-0.107 0-0.004-0-0.009-0.001-0.013l0 0 0.477-0.294c0.012 0.010 0.027 0.018 0.043 0.022l0.001 0c0.008 0.002 0.017 0.003 0.026 0.003 0.050 0 0.092-0.034 0.105-0.080l0-0.001c0.002-0.008 0.003-0.017 0.003-0.026s-0.001-0.018-0.003-0.027l0 0.001 0.44-0.271 0.032-0.019c0.020 0.021 0.047 0.034 0.078 0.034 0.059 0 0.107-0.048 0.107-0.107 0-0.013-0.002-0.026-0.007-0.038l0 0.001 0.467-0.289c0.020 0.024 0.050 0.040 0.083 0.040 0.021 0 0.040-0.006 0.056-0.016l-0 0 0.016-0.013c0.010-0.009 0.018-0.021 0.024-0.033l0-0.001c0.006-0.012 0.009-0.027 0.010-0.042v-0c0-0.001 0-0.003 0-0.004 0-0.016-0.004-0.032-0.010-0.045l0 0.001 0.465-0.288c0.019 0.031 0.053 0.051 0.091 0.051 0.059 0 0.107-0.048 0.107-0.107 0-0.021-0.006-0.040-0.016-0.057l0 0 0.488-0.273c0.019 0.031 0.053 0.051 0.091 0.051 0.059 0 0.107-0.048 0.107-0.107 0-0.021-0.006-0.040-0.016-0.057l0 0 0.465-0.288c0.018 0.035 0.054 0.058 0.095 0.058 0.059 0 0.107-0.048 0.107-0.107 0-0.024-0.008-0.046-0.021-0.064l0 0 0.469-0.296c0.014 0.045 0.055 0.078 0.104 0.078 0.060 0 0.108-0.048 0.108-0.108 0-0.030-0.012-0.056-0.031-0.076v0l0.472-0.291c0.012 0.047 0.054 0.081 0.104 0.081 0.059 0 0.107-0.048 0.107-0.107 0-0.032-0.014-0.061-0.037-0.081l-0-0 0.474-0.304c0.005 0.056 0.051 0.099 0.108 0.099 0.060 0 0.108-0.048 0.108-0.108 0-0.040-0.022-0.075-0.054-0.094l-0.001-0 0.485-0.299c0.004 0.056 0.050 0.099 0.106 0.099 0.059 0 0.107-0.048 0.107-0.107 0-0.039-0.020-0.072-0.051-0.091l-0-0 0.485-0.304c-0 0.001-0 0.002-0 0.004 0 0.050 0.034 0.092 0.080 0.105l0.001 0h0.021c0.001 0 0.002 0 0.002 0 0.060 0 0.108-0.048 0.108-0.108 0-0.027-0.010-0.052-0.027-0.071l0 0-0.015-0.015-0.023-0.013 0.504-0.312c-0.001 0.005-0.001 0.011-0.001 0.018 0 0.059 0.048 0.107 0.107 0.107s0.107-0.048 0.107-0.107c0-0.047-0.031-0.088-0.074-0.101l-0.001-0 0.136-0.084 0.792 0.381c-0.016 0.019-0.025 0.043-0.025 0.069 0 0.060 0.048 0.108 0.108 0.108 0.052 0 0.095-0.036 0.106-0.085l0-0.001 1.322 0.637-1.939 1.32c-0.003-0-0.007-0.001-0.011-0.001-0.048 0-0.089 0.032-0.102 0.076l-0 0.001-0.485 0.333c-0.016-0.011-0.037-0.017-0.058-0.017-0.050 0-0.091 0.034-0.103 0.080l-0 0.001c-0 0.003-0 0.007-0 0.011s0 0.007 0.001 0.011l-0-0c-0.001 0.004-0.001 0.009-0.001 0.014s0 0.010 0.001 0.014l-0-0.001-0.457 0.312c-0.020-0.029-0.052-0.047-0.089-0.047-0.059 0-0.108 0.048-0.108 0.108 0 0.023 0.007 0.044 0.019 0.061l-0-0-0.461 0.314c-0.004-0.025-0.016-0.047-0.034-0.063l-0-0c-0.007-0.008-0.016-0.014-0.025-0.019l-0.001-0h-0.021c-0.009-0.002-0.019-0.004-0.029-0.004-0.059 0-0.107 0.048-0.107 0.107 0 0.038 0.020 0.072 0.051 0.091l0 0-0.503 0.343c0.007-0.014 0.010-0.030 0.010-0.047 0-0.061-0.049-0.11-0.11-0.11s-0.11 0.049-0.11 0.11c0 0.061 0.049 0.11 0.11 0.11 0.003 0 0.005-0 0.008-0l-0 0-8.11 5.548c-0.023 0.007-0.043 0.020-0.056 0.039l-0 0-0.525 0.357h-0.016c-0.008-0.002-0.017-0.003-0.026-0.003-0.059 0-0.107 0.048-0.107 0.107 0 0.001 0 0.002 0 0.003v-0l-0.465 0.323c-0.020-0.025-0.050-0.041-0.084-0.041-0.059 0-0.107 0.048-0.107 0.107 0 0.020 0.006 0.039 0.015 0.055l-0-0-0.454 0.31c-0.012-0.035-0.040-0.061-0.075-0.069l-0.001-0h-0.021c-0.002-0-0.003-0-0.005-0-0.059 0-0.107 0.048-0.107 0.107 0 0.033 0.015 0.063 0.039 0.082l0 0-0.485 0.323c0.001-0.004 0.001-0.009 0.001-0.014 0-0.059-0.048-0.107-0.107-0.107s-0.107 0.048-0.107 0.107c0 0.049 0.034 0.091 0.079 0.103l0.001 0-0.388 0.265zM26.865 12.695c0-0.002 0-0.005 0-0.007 0-0.060-0.048-0.108-0.108-0.108-0.028 0-0.054 0.011-0.073 0.028l0-0-0.42-0.202c-0.004-0.025-0.016-0.047-0.034-0.063l-0-0c-0.007-0.008-0.016-0.014-0.025-0.019l-0.001-0h-0.021c-0.008-0.002-0.016-0.003-0.025-0.003-0.019 0-0.036 0.005-0.051 0.013l0.001-0c0.006-0.013 0.010-0.028 0.010-0.044 0-0.059-0.048-0.107-0.107-0.107-0.043 0-0.080 0.025-0.097 0.062l-0 0.001-0.606-0.291 0.36-0.223c-0.005 0.012-0.008 0.026-0.008 0.040s0.003 0.028 0.008 0.041l-0-0.001c-0.009-0.003-0.020-0.005-0.031-0.005-0.059 0-0.107 0.048-0.107 0.107s0.048 0.107 0.107 0.107c0.059 0 0.107-0.048 0.107-0.107 0-0.013-0.002-0.025-0.006-0.037l0 0.001c0.004 0 0.008 0.001 0.012 0.001 0.060 0 0.108-0.048 0.108-0.108 0-0.046-0.028-0.085-0.068-0.101l-0.001-0h-0.023l0.149-0.092c0.015 0.043 0.055 0.073 0.102 0.073 0.060 0 0.108-0.048 0.108-0.108 0-0.030-0.012-0.056-0.031-0.076v0l0.233-0.144c-0.007 0.010-0.013 0.022-0.016 0.035l-0 0.001c-0.002 0.008-0.003 0.017-0.003 0.027 0 0.028 0.011 0.053 0.028 0.072l-0-0-0.015 0.011c-0.019 0.020-0.031 0.046-0.031 0.076s0.012 0.056 0.031 0.076v0l0.016 0.015c0.017 0.011 0.037 0.017 0.058 0.017 0.060 0 0.108-0.048 0.108-0.108 0-0.027-0.010-0.052-0.026-0.071l0 0 0.019-0.016c0.007-0.007 0.013-0.016 0.017-0.025l0-0.001c0.006-0.013 0.010-0.029 0.010-0.046 0-0.028-0.011-0.053-0.028-0.073l0 0c-0.014-0.015-0.032-0.026-0.053-0.031l-0.001-0h-0.034c0.039-0.001 0.073-0.024 0.090-0.056l0-0.001 0.582-0.36 0.011 0.015 0.016 0.013c0.015 0.008 0.032 0.013 0.051 0.013 0.059 0 0.107-0.048 0.107-0.107 0-0.020-0.006-0.039-0.015-0.055l0 0 0.485-0.301v0.052c-0.004-0.001-0.009-0.001-0.014-0.001-0.060 0-0.108 0.048-0.108 0.108 0 0.048 0.031 0.088 0.073 0.103l0.001 0h0.016l-0.066 0.441c-0.005-0.014-0.013-0.027-0.023-0.037l0 0-0.016-0.015c-0.016-0.009-0.035-0.015-0.055-0.015-0.060 0-0.108 0.048-0.108 0.108 0 0.026 0.009 0.050 0.024 0.069l-0-0 0.016 0.015c0.017 0.012 0.039 0.019 0.062 0.019 0.029 0 0.056-0.012 0.076-0.031l-0 0 0.011-0.013-0.034 0.226c-0.016-0.226-0.203-0.404-0.432-0.404-0.239 0-0.433 0.194-0.433 0.433s0.194 0.433 0.433 0.433c0.179 0 0.333-0.109 0.399-0.264l0.001-0.003-0.026 0.17h-0.011c-0.058 0.003-0.103 0.050-0.103 0.108 0 0.051 0.035 0.093 0.082 0.105l0.001 0-0.026 0.175c-0.040 0.016-0.068 0.055-0.068 0.101 0 0.029 0.011 0.055 0.029 0.074l-0-0 0.011 0.010-0.037 0.247c-0.007 0.014-0.011 0.031-0.011 0.048 0 0.006 0.001 0.013 0.002 0.019l-0-0.001-0.034 0.226zM27.098 11.088v0c-0.019 0.020-0.031 0.046-0.031 0.076s0.012 0.056 0.031 0.076v0l0.016 0.015c0.016 0.009 0.035 0.015 0.055 0.015 0.060 0 0.108-0.048 0.108-0.108 0-0.026-0.009-0.050-0.024-0.069l0 0-0.018-0.015c-0.017-0.012-0.038-0.019-0.061-0.019-0.009 0-0.017 0.001-0.025 0.003l0.001-0c0.025-0.021 0.040-0.051 0.040-0.086 0-0.062-0.050-0.111-0.111-0.111s-0.111 0.050-0.111 0.111c0 0.062 0.050 0.111 0.111 0.111 0.009 0 0.018-0.001 0.027-0.003l-0.001 0zM24.829 13.309c0.008 0.002 0.018 0.004 0.027 0.004 0.060 0 0.108-0.048 0.108-0.108s-0.048-0.108-0.108-0.108c-0.059 0-0.106 0.046-0.108 0.105v0c-0 0.001-0 0.002-0 0.004 0 0.050 0.034 0.092 0.080 0.105l0.001 0zM27.231 12.577c-0.007-0.002-0.015-0.003-0.024-0.003-0.059 0-0.107 0.048-0.107 0.107s0.048 0.107 0.107 0.107c0.049 0 0.091-0.033 0.103-0.079l0-0.001c0.002-0.008 0.003-0.017 0.003-0.026 0-0.051-0.035-0.093-0.082-0.105l-0.001-0zM26.882 11.947c0.001-0.006 0.002-0.014 0.002-0.022 0-0.029-0.011-0.055-0.030-0.074l0 0-0.016-0.015c-0.016-0.009-0.035-0.015-0.055-0.015-0.060 0-0.108 0.048-0.108 0.108 0 0.026 0.009 0.050 0.024 0.069l-0-0 0.011 0.008c-0.002 0.007-0.003 0.015-0.003 0.023 0 0.060 0.048 0.108 0.108 0.108s0.108-0.048 0.108-0.108c0-0.034-0.016-0.065-0.041-0.085l-0-0zM25.873 13.576h0.021c0.059-0.001 0.107-0.049 0.107-0.108 0-0.048-0.032-0.089-0.076-0.103l-0.001-0h-0.021c-0.059 0.001-0.107 0.049-0.107 0.108 0 0.048 0.032 0.089 0.076 0.103l0.001 0zM22.219 14.878c0.008 0.002 0.018 0.004 0.027 0.004 0.060 0 0.108-0.048 0.108-0.108s-0.048-0.108-0.108-0.108c-0.059 0-0.106 0.046-0.108 0.105v0c-0 0.001-0 0.002-0 0.004 0 0.050 0.034 0.092 0.080 0.105l0.001 0zM23.491 14.078c0.009 0.006 0.020 0.011 0.032 0.014l0.001 0h0.021c0.002 0 0.004 0 0.006 0 0.059 0 0.107-0.048 0.107-0.107 0-0.031-0.014-0.060-0.035-0.079l-0-0c-0.007-0.004-0.016-0.006-0.025-0.008l-0.001-0h-0.021c-0.009-0.002-0.019-0.004-0.029-0.004-0.059 0-0.107 0.048-0.107 0.107 0 0.038 0.020 0.072 0.051 0.091l0 0zM23.263 15.139h0.021c0.001 0 0.002 0 0.002 0 0.060 0 0.108-0.048 0.108-0.108 0-0.027-0.010-0.052-0.027-0.071l0 0c-0.014-0.015-0.032-0.026-0.053-0.031l-0.001-0h-0.021c-0.059 0.001-0.107 0.049-0.107 0.108 0 0.048 0.032 0.089 0.076 0.103l0.001 0zM19.609 16.446c0.008 0.002 0.018 0.004 0.027 0.004 0.060 0 0.108-0.048 0.108-0.108s-0.048-0.108-0.108-0.108c-0.059 0-0.106 0.047-0.108 0.105v0c-0 0.001-0 0.002-0 0.004 0 0.050 0.034 0.092 0.080 0.105l0.001 0zM20.881 15.648c0.016 0.011 0.036 0.017 0.058 0.017 0.050 0 0.092-0.034 0.104-0.081l0-0.001c0.002-0.008 0.003-0.017 0.003-0.026 0-0.050-0.034-0.092-0.080-0.105l-0.001-0h-0.021c-0.002-0-0.005-0-0.007-0-0.059 0-0.107 0.048-0.107 0.107 0 0.038 0.020 0.072 0.050 0.090l0 0zM20.653 16.706c0.004 0 0.008 0.001 0.012 0.001 0.060 0 0.108-0.048 0.108-0.108 0-0.046-0.028-0.085-0.068-0.101l-0.001-0h-0.021c-0.059 0.001-0.107 0.049-0.107 0.108 0 0.048 0.032 0.089 0.076 0.103l0.001 0zM16.999 18.014c0.008 0.002 0.018 0.004 0.027 0.004 0.060 0 0.108-0.048 0.108-0.108s-0.048-0.108-0.108-0.108c-0.059 0-0.106 0.047-0.108 0.105v0c-0 0.001-0 0.002-0 0.004 0 0.050 0.034 0.092 0.080 0.105l0.001 0zM18.284 17.222h0.042c0.059-0.001 0.107-0.049 0.107-0.108 0-0.048-0.032-0.089-0.076-0.103l-0.001-0h-0.021c-0.001-0-0.002-0-0.004-0-0.060 0-0.108 0.048-0.108 0.108 0 0.042 0.024 0.079 0.060 0.097l0.001 0zM18.043 18.274c0.004 0 0.008 0.001 0.012 0.001 0.060 0 0.108-0.048 0.108-0.108 0-0.046-0.028-0.085-0.068-0.101l-0.001-0h-0.021c-0.059 0.001-0.107 0.049-0.107 0.108 0 0.048 0.032 0.089 0.076 0.103l0.001 0zM21.619 16.836c-0.002 0.008-0.003 0.017-0.003 0.026 0 0.060 0.048 0.108 0.108 0.108s0.108-0.048 0.108-0.108c0-0.051-0.035-0.093-0.082-0.105l-0.001-0c-0.008-0.002-0.017-0.003-0.026-0.003-0.051 0-0.093 0.035-0.105 0.082l-0 0.001zM20.315 17.616c-0.002 0.008-0.003 0.016-0.003 0.025 0 0.043 0.025 0.080 0.061 0.097l0.001 0h0.042c0.059-0.001 0.107-0.049 0.107-0.108 0-0.048-0.032-0.089-0.076-0.103l-0.001-0h-0.021c-0.001-0-0.002-0-0.003-0-0.053 0-0.097 0.038-0.106 0.088l-0 0.001zM14.384 19.583c0.008 0.002 0.018 0.004 0.027 0.004 0.060 0 0.108-0.048 0.108-0.108s-0.048-0.108-0.108-0.108c-0.059 0-0.106 0.047-0.108 0.105v0c-0 0.001-0 0.002-0 0.004 0 0.050 0.034 0.092 0.080 0.105l0.001 0zM15.661 18.783c0.009 0.006 0.020 0.011 0.032 0.014l0.001 0h0.021c0.059-0.001 0.107-0.049 0.107-0.108 0-0.048-0.032-0.089-0.075-0.103l-0.001-0h-0.021c-0.002-0-0.005-0-0.007-0-0.059 0-0.107 0.048-0.107 0.107 0 0.038 0.020 0.072 0.050 0.090l0 0zM15.433 19.843h0.021c0.001 0 0.002 0 0.003 0 0.035 0 0.066-0.016 0.085-0.042l0-0v-0.008c0.006-0.009 0.011-0.019 0.014-0.030l0-0.001c0.002-0.008 0.003-0.017 0.003-0.026 0-0.050-0.034-0.092-0.080-0.105l-0.001-0h-0.021c-0.059 0.001-0.107 0.049-0.107 0.108 0 0.048 0.032 0.089 0.075 0.103l0.001 0zM19.009 18.405c-0.002 0.008-0.003 0.017-0.003 0.026 0 0.060 0.048 0.108 0.108 0.108s0.108-0.048 0.108-0.108c0-0.051-0.035-0.093-0.082-0.105l-0.001-0c-0.008-0.002-0.017-0.003-0.026-0.003-0.051 0-0.093 0.035-0.105 0.082l-0 0.001zM17.705 19.189c-0.002 0.008-0.003 0.017-0.003 0.026 0 0.060 0.048 0.108 0.108 0.108s0.108-0.048 0.108-0.108c0-0.051-0.035-0.093-0.082-0.105l-0.001-0h-0.021c-0.002-0-0.004-0-0.006-0-0.049 0-0.091 0.033-0.104 0.079l-0 0.001zM8.756 20.331v-0.008c0.006-0.009 0.011-0.019 0.014-0.030l0-0.001c0.002-0.008 0.003-0.017 0.003-0.026 0-0.050-0.034-0.092-0.080-0.105l-0.001-0h-0.021c-0.059 0.001-0.107 0.049-0.107 0.108 0 0.048 0.032 0.089 0.075 0.103l0.001 0h0.021c0.002 0 0.005 0 0.008 0 0.035 0 0.066-0.016 0.086-0.042l0-0zM11.779 21.151c0.007 0.002 0.016 0.003 0.025 0.003 0.021 0 0.040-0.006 0.057-0.016l-0 0 0.016-0.013c0.023-0.020 0.038-0.049 0.038-0.082 0-0.060-0.048-0.108-0.108-0.108-0.051 0-0.094 0.035-0.105 0.083l-0 0.001c-0.002 0.008-0.003 0.017-0.003 0.026 0 0.050 0.034 0.092 0.080 0.105l0.001 0zM13.050 20.352c0.016 0.011 0.036 0.017 0.058 0.017 0.050 0 0.092-0.035 0.104-0.081l0-0.001c0.002-0.008 0.003-0.017 0.003-0.026 0-0.050-0.034-0.092-0.080-0.105l-0.001-0h-0.021c-0.002-0-0.005-0-0.007-0-0.059 0-0.107 0.048-0.107 0.107 0 0.038 0.020 0.072 0.050 0.090l0 0zM12.823 21.411h0.021c0.059-0.001 0.107-0.049 0.107-0.108 0-0.048-0.032-0.089-0.075-0.103l-0.001-0h-0.021c-0.059 0.001-0.107 0.049-0.107 0.108 0 0.048 0.032 0.089 0.075 0.103l0.001 0zM16.399 19.973c-0.002 0.007-0.003 0.015-0.003 0.023 0 0.060 0.048 0.108 0.108 0.108 0.034 0 0.065-0.016 0.085-0.041l0-0c0.015-0.018 0.023-0.042 0.023-0.067 0-0.060-0.048-0.108-0.108-0.108-0.052 0-0.095 0.036-0.106 0.084l-0 0.001zM15.095 20.756c-0.002 0.008-0.003 0.016-0.003 0.025 0 0.043 0.025 0.080 0.061 0.097l0.001 0h0.042c0.059-0.001 0.107-0.049 0.107-0.108 0-0.048-0.032-0.089-0.075-0.103l-0.001-0h-0.021c-0.001-0-0.002-0-0.003-0-0.053 0-0.097 0.038-0.106 0.088l-0 0.001zM6.662 19.672c-0.014-0.015-0.032-0.027-0.053-0.032l-0.001-0h-0.021c-0.059 0.001-0.107 0.049-0.107 0.108 0 0.048 0.032 0.089 0.075 0.103l0.001 0h0.021c0.001 0 0.002 0 0.004 0 0.028 0 0.053-0.010 0.072-0.028l-0 0c0.019-0.019 0.031-0.046 0.031-0.075s-0.012-0.056-0.031-0.075v0zM8.475 21.223c-0.018-0.015-0.042-0.024-0.068-0.024-0.060 0-0.108 0.048-0.108 0.108 0 0.042 0.024 0.079 0.060 0.097l0.001 0 0.024 0.010h0.021c0.001 0 0.002 0 0.003 0 0.060 0 0.108-0.048 0.108-0.108 0-0.035-0.016-0.066-0.042-0.086l-0-0zM7.653 19.9c-0.008-0.002-0.017-0.003-0.026-0.003-0.060 0-0.108 0.048-0.108 0.108s0.048 0.108 0.108 0.108c0.059 0 0.106-0.047 0.108-0.105v-0c0-0.001 0-0.002 0-0.003 0-0.051-0.035-0.093-0.082-0.105l-0.001-0zM13.789 21.542c-0.002 0.008-0.003 0.017-0.003 0.026 0 0.060 0.048 0.108 0.108 0.108s0.108-0.048 0.108-0.108c0-0.051-0.035-0.093-0.082-0.105l-0.001-0c-0.008-0.002-0.017-0.003-0.026-0.003-0.051 0-0.093 0.035-0.105 0.082l-0 0.001zM12.485 22.326c-0.002 0.008-0.003 0.016-0.003 0.026 0 0.041 0.023 0.076 0.056 0.094l0.001 0 0.024 0.010h0.021c0.059-0.001 0.107-0.049 0.107-0.108 0-0.048-0.032-0.089-0.075-0.103l-0.001-0h-0.021c-0.001-0-0.002-0-0.003-0-0.051 0-0.093 0.035-0.105 0.082l-0 0.001zM9.22 22.51c-0.008-0.002-0.017-0.003-0.026-0.003-0.060 0-0.108 0.048-0.108 0.108s0.048 0.108 0.108 0.108c0.059 0 0.107-0.047 0.108-0.105v-0c0-0.001 0-0.002 0-0.003 0-0.051-0.035-0.093-0.082-0.105l-0.001-0zM11.313 23.030c-0.008-0.002-0.017-0.003-0.026-0.003-0.060 0-0.108 0.048-0.108 0.108s0.048 0.108 0.108 0.108c0.059 0 0.107-0.047 0.108-0.105v-0c0-0.001 0-0.002 0-0.003 0-0.051-0.035-0.093-0.082-0.105l-0.001-0zM10.135 22.849c-0.002 0.008-0.003 0.017-0.003 0.026 0 0.050 0.034 0.092 0.080 0.105l0.001 0h0.021c0.059-0.001 0.107-0.049 0.107-0.108 0-0.048-0.032-0.089-0.075-0.103l-0.001-0h-0.021c-0.001-0-0.002-0-0.004-0-0.050 0-0.092 0.034-0.105 0.080l-0 0.001zM5.059 17.337c0.020-0.019 0.033-0.047 0.033-0.077 0-0.015-0.003-0.030-0.009-0.043l0 0.001 0.016-0.016v-0.008c0.006-0.009 0.011-0.019 0.014-0.030l0-0.001c0.002-0.008 0.003-0.017 0.003-0.026 0-0.050-0.034-0.092-0.080-0.105l-0.001-0h-0.021c-0.002-0-0.004-0-0.006-0-0.059 0-0.107 0.048-0.107 0.107 0 0.016 0.003 0.031 0.010 0.044l-0-0.001c-0.022 0.020-0.035 0.049-0.035 0.081 0 0.061 0.049 0.11 0.11 0.11 0.029 0 0.056-0.011 0.075-0.030l-0 0zM4.525 17.175c-0.020 0.020-0.032 0.047-0.032 0.077 0 0.060 0.048 0.108 0.108 0.108s0.108-0.048 0.108-0.108c0-0.030-0.012-0.058-0.032-0.077v0c-0.020-0.019-0.046-0.031-0.076-0.031s-0.056 0.012-0.076 0.031v0zM5.388 15.851c0 0 0.001 0 0.001 0 0.060 0 0.108-0.048 0.108-0.108s-0.048-0.108-0.108-0.108c-0.060 0-0.108 0.048-0.108 0.108 0 0.030 0.012 0.056 0.031 0.076v0c0.019 0.020 0.046 0.032 0.076 0.032h0zM6.141 16.625c0 0 0.001 0 0.001 0 0.060 0 0.108-0.048 0.108-0.108s-0.048-0.108-0.108-0.108c-0.060 0-0.108 0.048-0.108 0.108 0 0.030 0.012 0.056 0.031 0.076v0c0.019 0.020 0.046 0.032 0.076 0.032h0zM6.24 15.072c0.020-0.020 0.032-0.047 0.032-0.077 0-0.060-0.048-0.108-0.108-0.108s-0.108 0.048-0.108 0.108c0 0.030 0.012 0.058 0.032 0.077v0c0.020 0.019 0.046 0.031 0.076 0.031s0.056-0.012 0.076-0.031v0zM5.776 15.478c0 0 0.001 0 0.001 0 0.060 0 0.108-0.048 0.108-0.108s-0.048-0.108-0.108-0.108c-0.060 0-0.108 0.048-0.108 0.108 0 0.030 0.012 0.056 0.031 0.076v0c0.019 0.020 0.046 0.032 0.076 0.032h0zM6.149 15.864c0 0 0.001 0 0.001 0 0.060 0 0.108-0.048 0.108-0.108s-0.048-0.108-0.108-0.108c-0.060 0-0.108 0.048-0.108 0.108 0 0.030 0.012 0.056 0.031 0.076v0c0.019 0.020 0.046 0.032 0.076 0.032h0zM6.924 15.116c0 0 0.001 0 0.001 0 0.060 0 0.108-0.048 0.108-0.108s-0.048-0.108-0.108-0.108c-0.060 0-0.108 0.048-0.108 0.108 0 0.030 0.012 0.056 0.031 0.076v0c0.019 0.020 0.046 0.032 0.076 0.032h0zM7.775 14.339c0.020-0.020 0.032-0.047 0.032-0.077 0-0.060-0.048-0.108-0.108-0.108s-0.108 0.048-0.108 0.108c0 0.030 0.012 0.058 0.032 0.077v0c0.020 0.019 0.046 0.031 0.076 0.031s0.056-0.012 0.076-0.031v0zM9.194 13.626c0.012 0.005 0.027 0.008 0.042 0.008 0.060 0 0.108-0.048 0.108-0.108s-0.048-0.108-0.108-0.108c-0.060 0-0.108 0.048-0.108 0.108 0 0.029 0.012 0.056 0.031 0.076l-0-0c0.010 0.010 0.022 0.018 0.035 0.024l0.001 0zM5.307 17.741c0.014 0.007 0.030 0.011 0.047 0.011 0.059 0 0.107-0.048 0.107-0.107s-0.048-0.107-0.107-0.107c-0.059 0-0.107 0.048-0.107 0.107 0 0.030 0.012 0.057 0.032 0.076l0 0c0.008 0.008 0.017 0.014 0.027 0.019l0.001 0zM6.070 18.14c0.012 0.005 0.027 0.008 0.042 0.008 0.060 0 0.108-0.048 0.108-0.108s-0.048-0.108-0.108-0.108c-0.060 0-0.108 0.048-0.108 0.108 0 0.029 0.012 0.056 0.031 0.076l-0-0c0.010 0.010 0.022 0.018 0.035 0.024l0.001 0zM4.975 17.747v0c0 0 0.001 0 0.001 0 0.060 0 0.108-0.048 0.108-0.108s-0.048-0.108-0.108-0.108c-0.060 0-0.108 0.048-0.108 0.108 0 0.030 0.012 0.056 0.031 0.076v0c0.019 0.020 0.046 0.032 0.076 0.032h0zM5.274 18.101c0.020 0.021 0.048 0.033 0.078 0.033 0.060 0 0.108-0.048 0.108-0.108s-0.048-0.108-0.108-0.108c-0.060 0-0.108 0.048-0.108 0.108 0 0.014 0.003 0.028 0.008 0.040l-0-0.001c0.005 0.014 0.013 0.026 0.023 0.036l-0-0zM7.735 16.622c0.020-0.020 0.032-0.047 0.032-0.077 0-0.060-0.048-0.108-0.108-0.108s-0.108 0.048-0.108 0.108c0 0.030 0.012 0.058 0.032 0.077v0c0.019 0.020 0.046 0.032 0.076 0.032s0.057-0.012 0.076-0.032v0zM6.449 16.218c0.019 0.020 0.047 0.033 0.077 0.033 0.059 0 0.107-0.048 0.107-0.107s-0.048-0.107-0.107-0.107c-0.059 0-0.107 0.048-0.107 0.107 0 0.014 0.003 0.027 0.007 0.039l-0-0.001c0.005 0.014 0.013 0.026 0.023 0.036l-0-0zM6.822 16.606c0.020 0.021 0.048 0.033 0.078 0.033 0.060 0 0.108-0.048 0.108-0.108s-0.048-0.108-0.108-0.108c-0.060 0-0.108 0.048-0.108 0.108 0 0.014 0.003 0.028 0.008 0.040l-0-0.001c0.005 0.014 0.013 0.026 0.023 0.036l-0-0zM7.644 15.121c0.012 0.005 0.027 0.008 0.042 0.008 0.060 0 0.108-0.048 0.108-0.108s-0.048-0.108-0.108-0.108c-0.060 0-0.108 0.048-0.108 0.108 0 0.029 0.012 0.056 0.031 0.076l-0-0c0.010 0.010 0.022 0.018 0.035 0.024l0.001 0zM7.223 15.472c0.020 0.020 0.047 0.033 0.078 0.033 0.060 0 0.108-0.048 0.108-0.108s-0.048-0.108-0.108-0.108c-0.060 0-0.108 0.048-0.108 0.108v0c0 0 0 0.001 0 0.001 0 0.029 0.012 0.056 0.031 0.075v0zM7.75 15.861c0.020-0.020 0.032-0.047 0.032-0.077 0-0.060-0.048-0.108-0.108-0.108s-0.108 0.048-0.108 0.108c0 0.030 0.012 0.058 0.032 0.077v0c0.020 0.019 0.046 0.031 0.076 0.031s0.056-0.012 0.076-0.031v0zM8.081 14.756c0 0 0.001 0 0.001 0 0.060 0 0.108-0.048 0.108-0.108s-0.048-0.108-0.108-0.108c-0.060 0-0.108 0.048-0.108 0.108 0 0.030 0.012 0.056 0.031 0.076v0c0.019 0.020 0.046 0.032 0.076 0.032h0zM8.524 15.113c0.020-0.020 0.032-0.047 0.032-0.077 0-0.060-0.048-0.108-0.108-0.108s-0.108 0.048-0.108 0.108c0 0.030 0.012 0.058 0.032 0.077v0c0.020 0.019 0.046 0.031 0.076 0.031s0.056-0.012 0.076-0.031v0zM8.861 15.515c0.040-0.016 0.068-0.054 0.069-0.098v-0c0-0.001 0-0.002 0-0.003 0-0.060-0.048-0.108-0.108-0.108s-0.108 0.048-0.108 0.108c0 0.060 0.048 0.108 0.108 0.108 0.014 0 0.027-0.003 0.040-0.007l-0.001 0zM8.771 13.975c0.020 0.021 0.048 0.033 0.078 0.033 0.060 0 0.108-0.048 0.108-0.108s-0.048-0.108-0.108-0.108c-0.060 0-0.108 0.048-0.108 0.108 0 0.014 0.003 0.028 0.008 0.040l-0-0.001c0.005 0.014 0.013 0.026 0.023 0.036l-0-0zM9.298 14.364c0.020-0.020 0.032-0.047 0.032-0.077 0-0.060-0.048-0.108-0.108-0.108s-0.108 0.048-0.108 0.108c0 0.030 0.012 0.058 0.032 0.077v0c0.020 0.019 0.046 0.031 0.076 0.031s0.056-0.012 0.076-0.031v0zM10.828 13.631c0.020-0.020 0.032-0.047 0.032-0.077 0-0.060-0.048-0.108-0.108-0.108s-0.108 0.048-0.108 0.108c0 0.030 0.012 0.058 0.032 0.077v0c0.020 0.019 0.046 0.031 0.076 0.031s0.056-0.012 0.076-0.031v0zM9.92 13.615c0.020 0.021 0.048 0.033 0.078 0.033 0.060 0 0.108-0.048 0.108-0.108s-0.048-0.108-0.108-0.108c-0.060 0-0.108 0.048-0.108 0.108 0 0.014 0.003 0.028 0.008 0.040l-0-0.001c0.005 0.014 0.013 0.026 0.023 0.036l-0-0zM6.885 17.4c0 0 0.001 0 0.001 0 0.060 0 0.108-0.048 0.108-0.108s-0.048-0.108-0.108-0.108c-0.060 0-0.108 0.048-0.108 0.108 0 0.030 0.012 0.056 0.031 0.076v0c0.019 0.020 0.046 0.032 0.076 0.032h0zM7.273 17.026c0 0 0.001 0 0.001 0 0.060 0 0.108-0.048 0.108-0.108s-0.048-0.108-0.108-0.108c-0.060 0-0.108 0.048-0.108 0.108 0 0.030 0.012 0.056 0.031 0.076v0c0.019 0.020 0.046 0.032 0.076 0.032h0zM7.606 17.404c0.012 0.005 0.027 0.008 0.042 0.008 0.060 0 0.108-0.048 0.108-0.108s-0.048-0.108-0.108-0.108c-0.060 0-0.108 0.048-0.108 0.108 0 0.029 0.012 0.056 0.031 0.076l-0-0c0.010 0.010 0.022 0.018 0.035 0.024l0.001 0zM8.511 15.874c0.020-0.020 0.032-0.047 0.032-0.077 0-0.060-0.048-0.108-0.108-0.108s-0.108 0.048-0.108 0.108c0 0.030 0.012 0.058 0.032 0.077v0c0.020 0.019 0.046 0.031 0.076 0.031s0.056-0.012 0.076-0.031v0zM8.047 16.278c0 0 0.001 0 0.001 0 0.060 0 0.108-0.048 0.108-0.108s-0.048-0.108-0.108-0.108c-0.060 0-0.108 0.048-0.108 0.108 0 0.030 0.012 0.056 0.031 0.076v0c0.019 0.020 0.046 0.032 0.076 0.032h0zM8.42 16.666c0 0 0.001 0 0.001 0 0.060 0 0.108-0.048 0.108-0.108s-0.048-0.108-0.108-0.108c-0.060 0-0.108 0.048-0.108 0.108 0 0.030 0.012 0.056 0.031 0.076v0c0.019 0.020 0.046 0.032 0.076 0.032h0zM9.272 15.887c0.020-0.020 0.032-0.047 0.032-0.077 0-0.060-0.048-0.108-0.108-0.108s-0.108 0.048-0.108 0.108c0 0.030 0.012 0.058 0.032 0.077v0c0.020 0.019 0.046 0.031 0.076 0.031s0.056-0.012 0.076-0.031v0zM9.519 14.749c0.020 0.021 0.048 0.033 0.078 0.033 0.060 0 0.108-0.048 0.108-0.108s-0.048-0.108-0.108-0.108c-0.060 0-0.108 0.048-0.108 0.108 0 0.014 0.003 0.028 0.008 0.040l-0-0.001c0.005 0.014 0.013 0.026 0.023 0.036l-0-0zM10.009 15.163c0.041-0.016 0.070-0.055 0.070-0.101 0-0.060-0.048-0.108-0.108-0.108s-0.108 0.048-0.108 0.108c0 0.029 0.012 0.056 0.031 0.075l-0-0c0.019 0.021 0.047 0.033 0.077 0.033 0.014 0 0.027-0.003 0.040-0.008l-0.001 0zM11.581 14.405c0.020-0.020 0.032-0.047 0.032-0.077 0-0.060-0.048-0.108-0.108-0.108s-0.108 0.048-0.108 0.108c0 0.030 0.012 0.058 0.032 0.077v0c0.020 0.019 0.046 0.031 0.076 0.031s0.056-0.012 0.076-0.031v0zM10.293 14.002c0.019 0.020 0.047 0.033 0.077 0.033 0.059 0 0.107-0.048 0.107-0.107s-0.048-0.107-0.107-0.107c-0.059 0-0.107 0.048-0.107 0.107 0 0.014 0.003 0.027 0.007 0.039l-0-0.001c0.005 0.014 0.013 0.026 0.023 0.036l-0-0zM10.667 14.384c0.020 0.021 0.048 0.033 0.078 0.033 0.060 0 0.108-0.048 0.108-0.108s-0.048-0.108-0.108-0.108c-0.060 0-0.108 0.048-0.108 0.108 0 0.014 0.003 0.028 0.008 0.040l-0-0.001c0.005 0.014 0.013 0.026 0.023 0.036l-0-0zM11.531 12.913c0 0 0.001 0 0.001 0 0.060 0 0.108-0.048 0.108-0.108s-0.048-0.108-0.108-0.108c-0.060 0-0.108 0.048-0.108 0.108 0 0.030 0.012 0.056 0.031 0.076v0c0.019 0.020 0.046 0.032 0.076 0.032h0zM11.221 13.253c0.020-0.020 0.032-0.047 0.032-0.077 0-0.060-0.048-0.108-0.108-0.108s-0.108 0.048-0.108 0.108c0 0.030 0.012 0.058 0.032 0.077v0c0.020 0.019 0.046 0.031 0.076 0.031s0.056-0.012 0.076-0.031v0zM12.252 12.918c0.012 0.005 0.027 0.008 0.042 0.008 0.060 0 0.108-0.048 0.108-0.108s-0.048-0.108-0.108-0.108c-0.060 0-0.108 0.048-0.108 0.108 0 0.029 0.012 0.056 0.031 0.076l-0-0c0.010 0.010 0.022 0.018 0.035 0.024l0.001 0zM13.067 12.178c0 0 0.001 0 0.001 0 0.060 0 0.108-0.048 0.108-0.108s-0.048-0.108-0.108-0.108c-0.060 0-0.108 0.048-0.108 0.108 0 0.030 0.012 0.056 0.031 0.076v0c0.019 0.020 0.046 0.032 0.076 0.032h0zM13.841 11.43c0.004 0.001 0.009 0.001 0.013 0.001 0.060 0 0.108-0.048 0.108-0.108s-0.048-0.108-0.108-0.108c-0.005 0-0.009 0-0.014 0.001l0.001-0c-0.027 0.001-0.051 0.012-0.070 0.029l0-0c-0.020 0.020-0.033 0.047-0.033 0.078 0 0.059 0.047 0.107 0.105 0.108h0zM14.914 11.037c0.020 0.021 0.048 0.034 0.079 0.034 0.060 0 0.108-0.048 0.108-0.108s-0.048-0.108-0.108-0.108h-0c-0 0-0 0-0 0-0.060 0-0.108 0.048-0.108 0.108 0 0.029 0.011 0.055 0.030 0.074l-0-0zM9.568 16.305c0 0 0.001 0 0.001 0 0.060 0 0.108-0.048 0.108-0.108s-0.048-0.108-0.108-0.108c-0.060 0-0.108 0.048-0.108 0.108 0 0.030 0.012 0.056 0.031 0.076v0c0.019 0.020 0.046 0.032 0.076 0.032h0zM10.267 15.523c0.020 0.021 0.048 0.033 0.078 0.033 0.060 0 0.108-0.048 0.108-0.108s-0.048-0.108-0.108-0.108c-0.060 0-0.108 0.048-0.108 0.108 0 0.014 0.003 0.028 0.008 0.040l-0-0.001c0.005 0.014 0.013 0.026 0.023 0.036l-0-0zM11.042 14.777c0.020 0.021 0.048 0.033 0.078 0.033 0.060 0 0.108-0.048 0.108-0.108s-0.048-0.108-0.108-0.108c-0.060 0-0.108 0.048-0.108 0.108 0 0.014 0.003 0.028 0.008 0.040l-0-0.001c0.005 0.014 0.013 0.026 0.023 0.036l-0-0zM11.491 15.192c0 0 0.001 0 0.001 0 0.060 0 0.108-0.048 0.108-0.108s-0.048-0.108-0.108-0.108c-0.060 0-0.108 0.048-0.108 0.108 0 0.030 0.012 0.056 0.031 0.076v0c0.019 0.020 0.046 0.032 0.076 0.032h0zM12.283 13.687c0 0 0.001 0 0.001 0 0.060 0 0.108-0.048 0.108-0.108s-0.048-0.108-0.108-0.108c-0.060 0-0.108 0.048-0.108 0.108 0 0.030 0.012 0.056 0.031 0.076v0c0.019 0.020 0.046 0.032 0.076 0.032h0zM11.892 14.061c0 0 0.001 0 0.001 0 0.060 0 0.108-0.048 0.108-0.108s-0.048-0.108-0.108-0.108c-0.060 0-0.108 0.048-0.108 0.108 0 0.030 0.012 0.056 0.031 0.076v0c0.019 0.020 0.046 0.032 0.076 0.032h0zM12.265 14.448c0 0 0.001 0 0.001 0 0.060 0 0.108-0.048 0.108-0.108s-0.048-0.108-0.108-0.108c-0.060 0-0.108 0.048-0.108 0.108 0 0.030 0.012 0.056 0.031 0.076v0c0.019 0.020 0.046 0.032 0.076 0.032h0zM12.706 13.306c0.041-0.016 0.070-0.055 0.070-0.101 0-0.060-0.048-0.108-0.108-0.108s-0.108 0.048-0.108 0.108c0 0.029 0.012 0.056 0.031 0.075l-0-0c0.019 0.021 0.047 0.033 0.077 0.033 0.014 0 0.027-0.003 0.040-0.008l-0.001 0zM13 13.692c0.012 0.005 0.027 0.008 0.042 0.008 0.060 0 0.108-0.048 0.108-0.108s-0.048-0.108-0.108-0.108c-0.060 0-0.108 0.048-0.108 0.108 0 0.029 0.012 0.056 0.031 0.076l-0-0c0.010 0.010 0.022 0.018 0.035 0.024l0.001 0zM13.899 12.162c0.020-0.020 0.032-0.047 0.032-0.077 0-0.060-0.048-0.108-0.108-0.108s-0.108 0.048-0.108 0.108c0 0.030 0.012 0.058 0.032 0.077v0c0.020 0.019 0.046 0.031 0.076 0.031s0.056-0.012 0.076-0.031v0zM14.536 12.957c0.012 0.005 0.027 0.008 0.042 0.008 0.060 0 0.108-0.048 0.108-0.108s-0.048-0.108-0.108-0.108c-0.060 0-0.108 0.048-0.108 0.108 0 0.029 0.012 0.056 0.031 0.076l-0-0c0.010 0.010 0.022 0.018 0.035 0.024l0.001 0zM13.482 12.558c0.041-0.016 0.070-0.055 0.070-0.101 0-0.060-0.048-0.108-0.108-0.108s-0.108 0.048-0.108 0.108c0 0.029 0.012 0.056 0.031 0.075l-0-0c0.019 0.021 0.047 0.033 0.077 0.033 0.014 0 0.027-0.003 0.040-0.008l-0.001 0zM13.737 12.92c0.020 0.021 0.048 0.033 0.078 0.033 0.060 0 0.108-0.048 0.108-0.108s-0.048-0.108-0.108-0.108c-0.060 0-0.108 0.048-0.108 0.108 0 0.014 0.003 0.028 0.008 0.040l-0-0.001c0.005 0.014 0.013 0.026 0.023 0.036l-0-0zM14.562 11.434c0.012 0.005 0.027 0.008 0.042 0.008 0.060 0 0.108-0.048 0.108-0.108s-0.048-0.108-0.108-0.108c-0.060 0-0.108 0.048-0.108 0.108 0 0.029 0.012 0.056 0.031 0.076l-0-0c0.010 0.010 0.022 0.018 0.035 0.024l0.001 0zM14.14 11.785c0.020 0.020 0.047 0.033 0.078 0.033 0.060 0 0.108-0.048 0.108-0.108s-0.048-0.108-0.108-0.108c-0.060 0-0.108 0.048-0.108 0.108v0c0 0 0 0.001 0 0.001 0 0.029 0.012 0.056 0.031 0.075v0zM14.665 12.175c0.020-0.020 0.032-0.047 0.032-0.077 0-0.060-0.048-0.108-0.108-0.108s-0.108 0.048-0.108 0.108c0 0.030 0.012 0.058 0.032 0.077v0c0.020 0.019 0.046 0.031 0.076 0.031s0.056-0.012 0.076-0.031v0zM15.441 11.426c0.020-0.020 0.032-0.047 0.032-0.077 0-0.060-0.048-0.108-0.108-0.108s-0.108 0.048-0.108 0.108c0 0.030 0.012 0.058 0.032 0.077v0c0.020 0.019 0.046 0.031 0.076 0.031s0.056-0.012 0.076-0.031v0zM15.662 11.811c0.020 0.021 0.048 0.033 0.078 0.033 0.060 0 0.108-0.048 0.108-0.108s-0.048-0.108-0.108-0.108c-0.060 0-0.108 0.048-0.108 0.108 0 0.014 0.003 0.028 0.008 0.040l-0-0.001c0.005 0.014 0.013 0.026 0.023 0.036l-0-0zM16.912 9.96c0 0 0.001 0 0.001 0 0.060 0 0.108-0.048 0.108-0.108s-0.048-0.108-0.108-0.108c-0.060 0-0.108 0.048-0.108 0.108 0 0.030 0.012 0.056 0.031 0.076v0c0.019 0.020 0.046 0.032 0.076 0.032h0zM16.97 10.693c0.020-0.020 0.032-0.047 0.032-0.077 0-0.060-0.048-0.108-0.108-0.108s-0.108 0.048-0.108 0.108c0 0.030 0.012 0.058 0.032 0.077v0c0.020 0.019 0.046 0.031 0.076 0.031s0.056-0.012 0.076-0.031v0zM15.688 10.289c0.019 0.020 0.047 0.033 0.077 0.033 0.059 0 0.107-0.048 0.107-0.107s-0.048-0.107-0.107-0.107c-0.059 0-0.107 0.048-0.107 0.107 0 0.014 0.003 0.027 0.007 0.039l-0-0.001c0.005 0.014 0.013 0.026 0.023 0.036l-0-0zM16.137 10.709c0 0 0.001 0 0.001 0 0.060 0 0.108-0.048 0.108-0.108s-0.048-0.108-0.108-0.108c-0.060 0-0.108 0.048-0.108 0.108 0 0.030 0.012 0.056 0.031 0.076v0c0.019 0.020 0.046 0.032 0.076 0.032h0zM14.188 13.34c0 0 0.001 0 0.001 0 0.060 0 0.108-0.048 0.108-0.108s-0.048-0.108-0.108-0.108c-0.060 0-0.108 0.048-0.108 0.108 0 0.030 0.012 0.056 0.031 0.076v0c0.019 0.020 0.046 0.032 0.076 0.032h0zM15.426 12.187c0.020-0.020 0.032-0.047 0.032-0.077 0-0.060-0.048-0.108-0.108-0.108s-0.108 0.048-0.108 0.108c0 0.030 0.012 0.058 0.032 0.077v0c0.020 0.019 0.046 0.031 0.076 0.031s0.056-0.012 0.076-0.031v0zM14.962 12.591c0 0 0.001 0 0.001 0 0.060 0 0.108-0.048 0.108-0.108s-0.048-0.108-0.108-0.108c-0.060 0-0.108 0.048-0.108 0.108 0 0.030 0.012 0.056 0.031 0.076v0c0.019 0.020 0.046 0.032 0.076 0.032h0zM15.337 12.979c0.004 0.001 0.009 0.001 0.013 0.001 0.060 0 0.108-0.048 0.108-0.108s-0.048-0.108-0.108-0.108c-0.005 0-0.009 0-0.014 0.001l0.001-0c-0.027 0.001-0.051 0.012-0.070 0.029l0-0c-0.020 0.020-0.033 0.047-0.033 0.078 0 0.059 0.047 0.107 0.105 0.108h0zM16.111 12.231c0 0 0.001 0 0.001 0 0.060 0 0.108-0.048 0.108-0.108s-0.048-0.108-0.108-0.108c-0.060 0-0.108 0.048-0.108 0.108 0 0.030 0.012 0.056 0.031 0.076v0c0.019 0.020 0.046 0.032 0.076 0.032h0zM17.723 11.467c0.020-0.020 0.032-0.047 0.032-0.077 0-0.060-0.048-0.108-0.108-0.108s-0.108 0.048-0.108 0.108c0 0.030 0.012 0.058 0.032 0.077v0c0.020 0.019 0.046 0.031 0.076 0.031s0.056-0.012 0.076-0.031v0zM16.553 11.088c0.041-0.016 0.070-0.055 0.070-0.101 0-0.060-0.048-0.108-0.108-0.108s-0.108 0.048-0.108 0.108c0 0.029 0.012 0.056 0.031 0.075l-0-0c0.020 0.020 0.047 0.033 0.078 0.033 0.014 0 0.027-0.003 0.039-0.007l-0.001 0zM16.808 11.45c0.020 0.021 0.048 0.033 0.078 0.033 0.060 0 0.108-0.048 0.108-0.108s-0.048-0.108-0.108-0.108c-0.060 0-0.108 0.048-0.108 0.108 0 0.014 0.003 0.028 0.008 0.040l-0-0.001c0.005 0.014 0.013 0.026 0.023 0.036l-0-0zM17.673 9.975v0c0.027-0.001 0.051-0.012 0.070-0.029l-0 0c0.020-0.020 0.033-0.047 0.033-0.078 0-0.060-0.048-0.108-0.108-0.108s-0.108 0.048-0.108 0.108c0 0.060 0.048 0.108 0.108 0.108h0zM17.21 10.316c0.019 0.020 0.047 0.033 0.077 0.033 0.059 0 0.107-0.048 0.107-0.107s-0.048-0.107-0.107-0.107c-0.059 0-0.107 0.048-0.107 0.107 0 0.014 0.003 0.027 0.007 0.039l-0-0.001c0.005 0.014 0.013 0.026 0.023 0.036l-0-0zM17.584 10.702c0.020 0.021 0.048 0.033 0.078 0.033 0.060 0 0.108-0.048 0.108-0.108s-0.048-0.108-0.108-0.108c-0.060 0-0.108 0.048-0.108 0.108 0 0.014 0.003 0.028 0.008 0.040l-0-0.001c0.005 0.014 0.013 0.026 0.023 0.036l-0-0zM18.835 8.853c0 0 0.001 0 0.001 0 0.060 0 0.108-0.048 0.108-0.108s-0.048-0.108-0.108-0.108c-0.060 0-0.108 0.048-0.108 0.108 0 0.030 0.012 0.056 0.031 0.076v0c0.019 0.020 0.046 0.032 0.076 0.032h0zM18.408 9.212c0.012 0.005 0.027 0.008 0.042 0.008 0.060 0 0.108-0.048 0.108-0.108s-0.048-0.108-0.108-0.108c-0.060 0-0.108 0.048-0.108 0.108 0 0.029 0.012 0.056 0.031 0.076l-0-0c0.010 0.010 0.022 0.018 0.035 0.024l0.001 0zM18.137 9.571c0.020-0.020 0.032-0.047 0.032-0.077 0-0.060-0.048-0.108-0.108-0.108s-0.108 0.048-0.108 0.108c0 0.030 0.012 0.058 0.032 0.077v0c0.020 0.019 0.046 0.031 0.076 0.031s0.056-0.012 0.076-0.031v0zM18.394 9.98c0.012 0.005 0.027 0.008 0.042 0.008 0.060 0 0.108-0.048 0.108-0.108s-0.048-0.108-0.108-0.108c-0.060 0-0.108 0.048-0.108 0.108 0 0.029 0.012 0.056 0.031 0.076l-0-0c0.010 0.010 0.022 0.018 0.035 0.024l0.001 0zM19.286 9.212c0.020-0.020 0.032-0.047 0.032-0.077 0-0.060-0.048-0.108-0.108-0.108s-0.108 0.048-0.108 0.108c0 0.030 0.012 0.058 0.032 0.077v0c0.020 0.019 0.046 0.031 0.076 0.031s0.056-0.012 0.076-0.031v0zM20.060 8.462c0.020-0.020 0.032-0.047 0.032-0.077 0-0.060-0.048-0.108-0.108-0.108s-0.108 0.048-0.108 0.108c0 0.030 0.012 0.058 0.032 0.077v0c0.020 0.019 0.046 0.031 0.076 0.031s0.056-0.012 0.076-0.031v0zM17.185 11.838c0.020 0.021 0.048 0.033 0.078 0.033 0.060 0 0.108-0.048 0.108-0.108s-0.048-0.108-0.108-0.108c-0.060 0-0.108 0.048-0.108 0.108 0 0.014 0.003 0.028 0.008 0.040l-0-0.001c0.005 0.014 0.013 0.026 0.023 0.036l-0-0zM18.424 10.749c0 0 0.001 0 0.001 0 0.060 0 0.108-0.048 0.108-0.108s-0.048-0.108-0.108-0.108c-0.060 0-0.108 0.048-0.108 0.108 0 0.030 0.012 0.056 0.031 0.076v0c0.019 0.020 0.046 0.032 0.076 0.032h0zM18.035 11.122c0 0 0.001 0 0.001 0 0.060 0 0.108-0.048 0.108-0.108s-0.048-0.108-0.108-0.108c-0.060 0-0.108 0.048-0.108 0.108 0 0.030 0.012 0.056 0.031 0.076v0c0.019 0.020 0.046 0.032 0.076 0.032h0zM19.623 9.619c0.041-0.016 0.070-0.055 0.070-0.101 0-0.060-0.048-0.108-0.108-0.108s-0.108 0.048-0.108 0.108c0 0.029 0.012 0.056 0.031 0.075l-0-0c0.019 0.021 0.047 0.033 0.077 0.033 0.014 0 0.027-0.003 0.040-0.008l-0.001 0zM19.273 9.97c0.020-0.020 0.032-0.047 0.032-0.077 0-0.060-0.048-0.108-0.108-0.108s-0.108 0.048-0.108 0.108c0 0.030 0.012 0.058 0.032 0.077v0c0.020 0.019 0.046 0.031 0.076 0.031s0.056-0.012 0.076-0.031v0zM18.809 10.374c0 0 0.001 0 0.001 0 0.060 0 0.108-0.048 0.108-0.108s-0.048-0.108-0.108-0.108c-0.060 0-0.108 0.048-0.108 0.108 0 0.030 0.012 0.056 0.031 0.076v0c0.019 0.020 0.046 0.032 0.076 0.032h0zM19.182 10.762c0 0 0.001 0 0.001 0 0.060 0 0.108-0.048 0.108-0.108s-0.048-0.108-0.108-0.108c-0.060 0-0.108 0.048-0.108 0.108 0 0.030 0.012 0.056 0.031 0.076v0c0.019 0.020 0.046 0.032 0.076 0.032h0zM20.398 8.873c0.041-0.016 0.070-0.055 0.070-0.101 0-0.060-0.048-0.108-0.108-0.108s-0.108 0.048-0.108 0.108v0c0 0 0 0 0 0.001 0 0.060 0.048 0.108 0.108 0.108 0.014 0 0.027-0.003 0.040-0.007l-0.001 0zM20.773 9.259c0.041-0.016 0.070-0.055 0.070-0.101 0-0.060-0.048-0.108-0.108-0.108s-0.108 0.048-0.108 0.108c0 0.029 0.012 0.056 0.031 0.075l-0-0c0.019 0.021 0.047 0.033 0.077 0.033 0.014 0 0.027-0.003 0.040-0.008l-0.001 0zM20.040 9.985c0.020-0.020 0.032-0.047 0.032-0.077 0-0.060-0.048-0.108-0.108-0.108s-0.108 0.048-0.108 0.108c0 0.030 0.012 0.058 0.032 0.077v0c0.020 0.019 0.046 0.031 0.076 0.031s0.056-0.012 0.076-0.031v0zM20.745 8.506c0 0 0.001 0 0.001 0 0.060 0 0.108-0.048 0.108-0.108s-0.048-0.108-0.108-0.108c-0.060 0-0.108 0.048-0.108 0.108 0 0.030 0.012 0.056 0.031 0.076v0c0.019 0.020 0.046 0.032 0.076 0.032h0zM20.331 10.402c0 0 0.001 0 0.001 0 0.060 0 0.108-0.048 0.108-0.108s-0.048-0.108-0.108-0.108c-0.060 0-0.108 0.048-0.108 0.108 0 0.030 0.012 0.056 0.031 0.076v0c0.019 0.020 0.046 0.032 0.076 0.032h0zM22.253 9.293c0 0 0.001 0 0.001 0 0.060 0 0.108-0.048 0.108-0.108s-0.048-0.108-0.108-0.108c-0.060 0-0.108 0.048-0.108 0.108 0 0.030 0.012 0.056 0.031 0.076v0c0.019 0.020 0.046 0.032 0.076 0.032h0zM22.318 10.020c0.020-0.020 0.032-0.047 0.032-0.077 0-0.060-0.048-0.108-0.108-0.108s-0.108 0.048-0.108 0.108c0 0.030 0.012 0.058 0.032 0.077v0c0.019 0.020 0.046 0.032 0.076 0.032s0.057-0.012 0.076-0.032v0zM22.95 8.512c0.020 0.021 0.048 0.033 0.078 0.033 0.060 0 0.108-0.048 0.108-0.108s-0.048-0.108-0.108-0.108c-0.060 0-0.108 0.048-0.108 0.108 0 0.014 0.003 0.028 0.008 0.040l-0-0.001c0.005 0.014 0.013 0.026 0.023 0.036l-0-0zM22.343 8.501c0.020-0.020 0.032-0.047 0.032-0.077 0-0.060-0.048-0.108-0.108-0.108s-0.108 0.048-0.108 0.108c0 0.030 0.012 0.058 0.032 0.077v0c0.020 0.019 0.046 0.031 0.076 0.031s0.056-0.012 0.076-0.031v0zM21.804 8.873c0.020 0.021 0.048 0.034 0.079 0.034 0.060 0 0.108-0.048 0.108-0.108s-0.048-0.108-0.108-0.108h-0c-0 0-0 0-0 0-0.060 0-0.108 0.048-0.108 0.108 0 0.029 0.011 0.055 0.030 0.074l-0-0zM22.578 8.124c0.019 0.020 0.046 0.032 0.076 0.032h0c0 0 0.001 0 0.001 0 0.060 0 0.108-0.048 0.108-0.108s-0.048-0.108-0.108-0.108c-0.060 0-0.108 0.048-0.108 0.108 0 0.030 0.012 0.056 0.031 0.076v0zM23.042 10.061c0.041-0.016 0.070-0.055 0.070-0.101 0-0.060-0.048-0.108-0.108-0.108s-0.108 0.048-0.108 0.108c0 0.029 0.012 0.056 0.031 0.075l-0-0c0.019 0.021 0.047 0.033 0.077 0.033 0.014 0 0.027-0.003 0.040-0.008l-0.001 0zM23.699 9.286c0.020 0.021 0.048 0.033 0.078 0.033 0.060 0 0.108-0.048 0.108-0.108s-0.048-0.108-0.108-0.108c-0.060 0-0.108 0.048-0.108 0.108 0 0.014 0.003 0.028 0.008 0.040l-0-0.001c0.005 0.014 0.013 0.026 0.023 0.036l-0-0zM23.014 9.306c0 0 0.001 0 0.001 0 0.060 0 0.108-0.048 0.108-0.108s-0.048-0.108-0.108-0.108c-0.060 0-0.108 0.048-0.108 0.108 0 0.030 0.012 0.056 0.031 0.076v0c0.019 0.020 0.046 0.032 0.076 0.032h0zM22.552 9.647c0.020 0.021 0.048 0.034 0.079 0.034 0.060 0 0.108-0.048 0.108-0.108s-0.048-0.108-0.108-0.108h-0c-0.043 0.001-0.079 0.027-0.095 0.064l-0 0.001c-0.005 0.012-0.009 0.027-0.009 0.042 0 0.029 0.011 0.055 0.030 0.074l-0-0zM23.3 10.421c0.020 0.021 0.048 0.034 0.079 0.034 0.060 0 0.108-0.048 0.108-0.108s-0.048-0.108-0.108-0.108h-0c-0 0-0 0-0 0-0.060 0-0.108 0.048-0.108 0.108 0 0.029 0.011 0.055 0.030 0.074l-0-0zM23.748 8.55c0.012 0.005 0.027 0.008 0.042 0.008 0.060 0 0.108-0.048 0.108-0.108s-0.048-0.108-0.108-0.108c-0.060 0-0.108 0.048-0.108 0.108 0 0.029 0.012 0.056 0.031 0.076l-0-0c0.010 0.010 0.022 0.018 0.035 0.024l0.001 0zM24.243 8.763c0.042 0.043 0.040 0.112-0.003 0.153s-0.112 0.040-0.153-0.003c-0.042-0.043-0.040-0.112 0.003-0.153s0.112-0.040 0.153 0.003zM24.622 8.769c0.042 0.043 0.040 0.112-0.003 0.153s-0.112 0.040-0.153-0.003c-0.042-0.043-0.040-0.112 0.003-0.153s0.112-0.040 0.153 0.003zM24.236 9.142c0.042 0.043 0.040 0.112-0.003 0.153s-0.112 0.040-0.153-0.003c-0.042-0.043-0.040-0.112 0.003-0.153s0.112-0.040 0.153 0.003zM23.862 8.754c0.042 0.043 0.040 0.112-0.003 0.153s-0.112 0.040-0.153-0.003c-0.042-0.043-0.040-0.112 0.003-0.153s0.112-0.040 0.153 0.003zM23.326 8.899c0.020 0.021 0.048 0.033 0.078 0.033 0.060 0 0.108-0.048 0.108-0.108s-0.048-0.108-0.108-0.108c-0.060 0-0.108 0.048-0.108 0.108 0 0.014 0.003 0.028 0.008 0.040l-0-0.001c0.005 0.014 0.013 0.026 0.023 0.036l-0-0zM23.449 10.653c0.042 0.043 0.040 0.112-0.003 0.153s-0.112 0.040-0.153-0.003c-0.042-0.043-0.040-0.112 0.003-0.153s0.112-0.040 0.153 0.003zM24.448 10.061c0.020 0.021 0.048 0.033 0.078 0.033 0.060 0 0.108-0.048 0.108-0.108s-0.048-0.108-0.108-0.108c-0.060 0-0.108 0.048-0.108 0.108 0 0.014 0.003 0.028 0.008 0.040l-0-0.001c0.005 0.014 0.013 0.026 0.023 0.036l-0-0zM23.842 9.898c0.042 0.043 0.040 0.112-0.003 0.153s-0.112 0.040-0.153-0.003c-0.042-0.043-0.040-0.112 0.003-0.153s0.112-0.040 0.153 0.003zM24.217 10.285c0.042 0.043 0.040 0.112-0.003 0.153s-0.112 0.040-0.153-0.003c-0.042-0.043-0.040-0.112 0.003-0.153s0.112-0.040 0.153 0.003zM24.596 10.291c0.042 0.043 0.040 0.112-0.003 0.153s-0.112 0.040-0.153-0.003c-0.042-0.043-0.040-0.112 0.003-0.153s0.112-0.040 0.153 0.003zM24.224 9.904c0.042 0.043 0.040 0.112-0.003 0.153s-0.112 0.040-0.153-0.003c-0.042-0.043-0.040-0.112 0.003-0.153s0.112-0.040 0.153 0.003zM24.209 10.667c0.042 0.043 0.040 0.112-0.003 0.153s-0.112 0.040-0.153-0.003c-0.042-0.043-0.040-0.112 0.003-0.153s0.112-0.040 0.153 0.003zM23.836 10.279c0.042 0.043 0.040 0.112-0.003 0.153s-0.112 0.040-0.153-0.003c-0.042-0.043-0.040-0.112 0.003-0.153s0.112-0.040 0.153 0.003zM23.825 10.812c0.020-0.020 0.032-0.047 0.032-0.077 0-0.060-0.048-0.108-0.108-0.108s-0.108 0.048-0.108 0.108c0 0.030 0.012 0.058 0.032 0.077v0c0.020 0.019 0.046 0.031 0.076 0.031s0.056-0.012 0.076-0.031v0zM24.965 8.952c0.041-0.016 0.070-0.055 0.070-0.101 0-0.060-0.048-0.108-0.108-0.108s-0.108 0.048-0.108 0.108c0 0.029 0.012 0.056 0.031 0.075l-0-0c0.020 0.020 0.047 0.033 0.078 0.033 0.014 0 0.027-0.003 0.039-0.007l-0.001 0zM24.614 9.303c0.020-0.020 0.032-0.047 0.032-0.077 0-0.060-0.048-0.108-0.108-0.108s-0.108 0.048-0.108 0.108c0 0.030 0.012 0.058 0.032 0.077v0c0.020 0.019 0.046 0.031 0.076 0.031s0.056-0.012 0.076-0.031v0zM24.992 9.537c0.042 0.043 0.040 0.112-0.003 0.153s-0.112 0.040-0.153-0.003c-0.042-0.043-0.040-0.112 0.003-0.153s0.112-0.040 0.153 0.003zM25.371 9.544c0.042 0.043 0.040 0.112-0.003 0.153s-0.112 0.040-0.153-0.003c-0.042-0.043-0.040-0.112 0.003-0.153s0.112-0.040 0.153 0.003zM24.997 9.156c0.042 0.043 0.040 0.112-0.003 0.153s-0.112 0.040-0.153-0.003c-0.042-0.043-0.040-0.112 0.003-0.153s0.112-0.040 0.153 0.003zM24.984 9.916c0.042 0.043 0.040 0.112-0.003 0.153s-0.112 0.040-0.153-0.003c-0.042-0.043-0.040-0.112 0.003-0.153s0.112-0.040 0.153 0.003zM24.608 9.529c0.042 0.043 0.040 0.112-0.003 0.153s-0.112 0.040-0.153-0.003c-0.042-0.043-0.040-0.112 0.003-0.153s0.112-0.040 0.153 0.003zM25.361 10.077c0.020-0.020 0.032-0.047 0.032-0.077 0-0.060-0.048-0.108-0.108-0.108s-0.108 0.048-0.108 0.108c0 0.030 0.012 0.058 0.032 0.077v0c0.020 0.019 0.046 0.031 0.076 0.031s0.056-0.012 0.076-0.031v0zM24.081 9.674c0.019 0.020 0.046 0.032 0.076 0.032h0c0 0 0.001 0 0.001 0 0.060 0 0.108-0.048 0.108-0.108s-0.048-0.108-0.108-0.108c-0.060 0-0.108 0.048-0.108 0.108 0 0.030 0.012 0.056 0.031 0.076v0zM25.758 9.168c0.042 0.043 0.040 0.112-0.003 0.153s-0.112 0.040-0.153-0.003c-0.042-0.043-0.040-0.112 0.003-0.153s0.112-0.040 0.153 0.003zM25.378 9.164c0.042 0.043 0.040 0.112-0.003 0.153s-0.112 0.040-0.153-0.003c-0.042-0.043-0.040-0.112 0.003-0.153s0.112-0.040 0.153 0.003zM24.511 10.854c0 0 0.001 0 0.001 0 0.060 0 0.108-0.048 0.108-0.108s-0.048-0.108-0.108-0.108c-0.060 0-0.108 0.048-0.108 0.108 0 0.030 0.012 0.056 0.031 0.076v0c0.019 0.020 0.046 0.032 0.076 0.032h0zM24.963 11.059c0.042 0.043 0.040 0.112-0.003 0.153s-0.112 0.040-0.153-0.003c-0.042-0.043-0.040-0.112 0.003-0.153s0.112-0.040 0.153 0.003zM24.971 10.679c0.042 0.043 0.040 0.112-0.003 0.153s-0.112 0.040-0.153-0.003c-0.042-0.043-0.040-0.112 0.003-0.153s0.112-0.040 0.153 0.003zM24.584 11.053c0.042 0.043 0.040 0.112-0.003 0.153s-0.112 0.040-0.153-0.003c-0.042-0.043-0.040-0.112 0.003-0.153s0.112-0.040 0.153 0.003zM24.163 11.221c0.041-0.016 0.070-0.055 0.070-0.101 0-0.060-0.048-0.108-0.108-0.108s-0.108 0.048-0.108 0.108c0 0.029 0.012 0.056 0.031 0.075l-0-0c0.019 0.021 0.047 0.033 0.077 0.033 0.014 0 0.027-0.003 0.040-0.008l-0.001 0zM25.739 10.312c0.042 0.043 0.040 0.112-0.003 0.153s-0.112 0.040-0.153-0.003c-0.042-0.043-0.040-0.112 0.003-0.153s0.112-0.040 0.153 0.003zM26.119 10.318c0.042 0.043 0.040 0.112-0.003 0.153s-0.112 0.040-0.153-0.003c-0.042-0.043-0.040-0.112 0.003-0.153s0.112-0.040 0.153 0.003zM25.744 9.93c0.042 0.043 0.040 0.112-0.003 0.153s-0.112 0.040-0.153-0.003c-0.042-0.043-0.040-0.112 0.003-0.153s0.112-0.040 0.153 0.003zM25.731 10.692c0.042 0.043 0.040 0.112-0.003 0.153s-0.112 0.040-0.153-0.003c-0.042-0.043-0.040-0.112 0.003-0.153s0.112-0.040 0.153 0.003zM25.359 10.305c0.042 0.043 0.040 0.112-0.003 0.153s-0.112 0.040-0.153-0.003c-0.042-0.043-0.040-0.112 0.003-0.153s0.112-0.040 0.153 0.003zM24.823 10.448c0.019 0.020 0.047 0.033 0.077 0.033 0.059 0 0.107-0.048 0.107-0.107s-0.048-0.107-0.107-0.107c-0.059 0-0.107 0.048-0.107 0.107 0 0.014 0.003 0.027 0.007 0.039l-0-0.001c0.005 0.014 0.013 0.026 0.023 0.036l-0-0zM25.196 10.828c0.020 0.021 0.048 0.033 0.078 0.033 0.060 0 0.108-0.048 0.108-0.108s-0.048-0.108-0.108-0.108c-0.060 0-0.108 0.048-0.108 0.108 0 0.014 0.003 0.028 0.008 0.040l-0-0.001c0.005 0.014 0.013 0.026 0.023 0.036l-0-0zM26.514 9.563c0.042 0.043 0.040 0.112-0.003 0.153s-0.112 0.040-0.153-0.003c-0.042-0.043-0.040-0.112 0.003-0.153s0.112-0.040 0.153 0.003zM26.505 9.944c0.042 0.043 0.040 0.112-0.003 0.153s-0.112 0.040-0.153-0.003c-0.042-0.043-0.040-0.112 0.003-0.153s0.112-0.040 0.153 0.003zM26.131 9.557c0.042 0.043 0.040 0.112-0.003 0.153s-0.112 0.040-0.153-0.003c-0.042-0.043-0.040-0.112 0.003-0.153s0.112-0.040 0.153 0.003zM25.749 9.697c0.020-0.020 0.032-0.047 0.032-0.077 0-0.060-0.048-0.108-0.108-0.108s-0.108 0.048-0.108 0.108c0 0.030 0.012 0.058 0.032 0.077v0c0.020 0.019 0.046 0.031 0.076 0.031s0.056-0.012 0.076-0.031v0zM26.126 9.936c0.042 0.043 0.040 0.112-0.003 0.153s-0.112 0.040-0.153-0.003c-0.042-0.043-0.040-0.112 0.003-0.153s0.112-0.040 0.153 0.003zM26.807 10.133c0 0 0.001 0 0.001 0 0.060 0 0.108-0.048 0.108-0.108s-0.048-0.108-0.108-0.108c-0.060 0-0.108 0.048-0.108 0.108 0 0.030 0.012 0.056 0.031 0.076v0c0.019 0.020 0.046 0.032 0.076 0.032h0zM26.455 11.83c-0.016-0.009-0.035-0.015-0.055-0.015-0.060 0-0.108 0.048-0.108 0.108 0 0.026 0.009 0.050 0.024 0.069l-0-0 0.016 0.015c0.016 0.009 0.035 0.015 0.055 0.015 0.060 0 0.108-0.048 0.108-0.108 0-0.026-0.009-0.050-0.024-0.069l0 0zM26.448 12.21c-0.016-0.009-0.035-0.015-0.055-0.015-0.060 0-0.108 0.048-0.108 0.108 0 0.026 0.009 0.050 0.024 0.069l-0-0 0.016 0.015c0.016 0.009 0.035 0.015 0.055 0.015 0.060 0 0.108-0.048 0.108-0.108 0-0.026-0.009-0.050-0.024-0.069l0 0zM26.093 11.839c0.042 0.043 0.040 0.112-0.003 0.153s-0.112 0.040-0.153-0.003c-0.042-0.043-0.040-0.112 0.003-0.153s0.112-0.040 0.153 0.003zM27.24 11.475l-0.016-0.015c-0.016-0.009-0.035-0.015-0.055-0.015-0.060 0-0.108 0.048-0.108 0.108 0 0.026 0.009 0.050 0.024 0.069l-0-0 0.016 0.015c0.016 0.009 0.035 0.015 0.055 0.015 0.060 0 0.108-0.048 0.108-0.108 0-0.026-0.009-0.050-0.024-0.069l0 0zM26.726 11.252c0.016 0.009 0.035 0.015 0.055 0.015 0.060 0 0.108-0.048 0.108-0.108 0-0.026-0.009-0.050-0.024-0.069l0 0-0.016-0.015c-0.016-0.009-0.035-0.015-0.055-0.015-0.060 0-0.108 0.048-0.108 0.108 0 0.026 0.009 0.050 0.024 0.069l-0-0zM26.72 11.636c0.016 0.009 0.035 0.015 0.055 0.015 0.060 0 0.108-0.048 0.108-0.108 0-0.026-0.009-0.050-0.024-0.069l0 0-0.016-0.015c-0.016-0.009-0.035-0.015-0.055-0.015-0.060 0-0.108 0.048-0.108 0.108 0 0.026 0.009 0.050 0.024 0.069l-0-0zM27.494 10.885c0.016 0.009 0.035 0.015 0.055 0.015 0.060 0 0.108-0.048 0.108-0.108 0-0.026-0.009-0.050-0.024-0.069l0 0-0.016-0.015c-0.016-0.009-0.035-0.015-0.055-0.015-0.060 0-0.108 0.048-0.108 0.108 0 0.026 0.009 0.050 0.024 0.069l-0-0zM27.257 11.893c-0.005-0.014-0.013-0.026-0.023-0.036l0 0-0.016-0.015c-0.016-0.009-0.035-0.015-0.055-0.015-0.060 0-0.108 0.048-0.108 0.108 0 0.026 0.009 0.050 0.024 0.069l-0-0 0.016 0.015c0.017 0.011 0.037 0.018 0.059 0.018 0.060 0 0.108-0.048 0.108-0.108 0-0.013-0.002-0.025-0.006-0.036l0 0.001zM26.846 12.23c0.042 0.043 0.040 0.112-0.003 0.153s-0.112 0.040-0.153-0.003c-0.042-0.043-0.040-0.112 0.003-0.153s0.112-0.040 0.153 0.003zM27.151 12.204c-0 0-0.001 0-0.001 0-0.060 0-0.108 0.048-0.108 0.108s0.048 0.108 0.108 0.108c0.060 0 0.108-0.048 0.108-0.108 0-0.030-0.012-0.056-0.031-0.076v0c-0.019-0.020-0.046-0.032-0.076-0.032h-0z"></path>
</svg>
