<!-- Generated by IcoMoon.io -->
<svg version="1.1" xmlns="http://www.w3.org/2000/svg" width="32" height="32" viewBox="0 0 32 32" style="fill: white">
<title>zipgrow</title>
<path d="M21.188 6.141c-0.646-1.277-2.020-1.6-2.554-0.582 1.826 1.115 1.665 2.715 1.665 2.715-0.614-0.808-1.277-1.374-1.907-1.697v-0.388c0.501 0.259 1.067 0.646 1.6 1.244-0.501-0.792-1.083-1.309-1.6-1.632v-2.457l-0.162-0.162h-4.105l-0.162 0.162v4.978c-0.404-0.242-0.776-0.582-1.099-1.455-0.582 0.598-2.149 2.198-2.053 4.105 0.097 1.762 1.471 2.78 2.57 1.907-1.503-2.149-0.533-3.879-0.533-3.879 0.242 1.034 0.63 1.891 1.083 2.537v0.679c-0.42-0.533-0.84-1.228-1.147-2.149 0.194 1.277 0.679 2.214 1.147 2.844v8.663c-0.824-0.63-2.020 0.049-2.376 1.438-0.42 1.665 0.679 3.345 1.083 3.943 0.453-0.76 0.857-0.97 1.293-1.115v2.764l0.162 0.162h4.105l0.162-0.162v-9.552c0.76 0.436 1.762-0.21 2.020-1.455 0.323-1.519-0.743-3.022-1.131-3.556-0.307 0.55-0.598 0.792-0.889 0.954v-6.141c1.018 0.517 1.552-0.113 2.618 1.002 0.259-0.598 0.905-2.327 0.21-3.717zM13.042 25.131c0 0-0.501-1.535 0.905-3.071v0.63c-0.291 0.404-0.566 0.889-0.776 1.487 0.242-0.436 0.501-0.792 0.776-1.099v0.549c-0.323 0.404-0.646 0.905-0.905 1.503zM19.006 15.806c0 0 0.485 1.293-0.614 2.715v-0.646c0.194-0.339 0.388-0.727 0.533-1.18-0.162 0.323-0.339 0.598-0.533 0.857v-0.549c0.226-0.356 0.436-0.743 0.614-1.196zM17.067 18.327c0.339-0.194 0.679-0.485 0.986-0.873v0.501c-0.824 0.905-1.665 1.196-1.745 1.228 0 0.016 0.032 0.291 0.404 0.275 0.178 0 0.776-0.339 1.358-1.083v10.101h-3.782v-2.699c0.356-0.113 0.743-0.259 1.18-0.711 0.97-1.002 0.63-2.198-0.178-2.618-0.339 0.178-0.679 0.436-1.002 0.776v-0.501c0.905-0.873 1.778-1.131 1.875-1.164 0-0.016-0.016-0.323-0.42-0.323-0.178 0-0.808 0.307-1.455 1.018v-8.905c0.307 0.323 0.566 0.501 0.695 0.517 0.436 0.081 0.533-0.242 0.533-0.259-0.081-0.032-0.614-0.323-1.228-0.97v-0.646c0.145 0.162 0.307 0.307 0.469 0.436 0.986-0.275 1.616-1.519 0.76-2.828-0.404-0.63-0.824-0.873-1.228-1.083v-5.010h3.766v2.101c-0.453-0.226-0.808-0.307-0.921-0.275-0.356 0.081-0.323 0.356-0.307 0.372 0.065 0 0.566 0.048 1.228 0.323v0.388c-0.097-0.032-0.194-0.065-0.275-0.097-0.63 0.517-0.695 1.6 0.275 2.295v6.578c-0.388 0.145-0.792 0.242-1.261 0.776-0.84 0.937-0.485 2.020 0.275 2.36zM15.515 3.394h1.293v25.212h-1.293v-25.212z"></path>
</svg>
